<?xml version="1.0" encoding="utf-8"?>
<!-- Generator: Adobe Illustrator 23.1.1, SVG Export Plug-In . SVG Version: 6.00 Build 0)  -->
<svg version="1.1" id="Layer_1" xmlns="http://www.w3.org/2000/svg" xmlns:xlink="http://www.w3.org/1999/xlink" x="0px" y="0px"
	 viewBox="0 0 42 42" style="enable-background:new 0 0 42 42;" xml:space="preserve">
<style type="text/css">
	.st0{fill:none;stroke:#222D4F;stroke-width:1.4;stroke-linecap:round;stroke-linejoin:round;stroke-miterlimit:10;}
	.st1{fill:#1B2C50;}
	.st2{clip-path:url(#SVGID_2_);fill:#B2B3B4;}
	
		.st3{clip-path:url(#SVGID_2_);fill:none;stroke:#272425;stroke-width:1.1;stroke-linecap:round;stroke-linejoin:round;stroke-miterlimit:10;}
	.st4{clip-path:url(#SVGID_2_);fill:#EBC7A3;}
	
		.st5{clip-path:url(#SVGID_2_);fill:#B2B3B4;stroke:#272425;stroke-width:1.1;stroke-linecap:round;stroke-linejoin:round;stroke-miterlimit:10;}
	.st6{clip-path:url(#SVGID_2_);fill:#AE957C;}
	.st7{clip-path:url(#SVGID_2_);fill:#AE957C;stroke:#CBCBCA;stroke-miterlimit:10;}
	
		.st8{clip-path:url(#SVGID_2_);fill:#222D4F;stroke:#272425;stroke-width:1.1;stroke-linecap:round;stroke-linejoin:round;stroke-miterlimit:10;}
	.st9{clip-path:url(#SVGID_2_);fill:#F9DD33;}
</style>
<g>
	<circle class="st0" cx="21.014" cy="21.066" r="20.216"/>
	<circle class="st1" cx="20.958" cy="21.066" r="20.216"/>
	<g>
		<defs>
			<circle id="SVGID_1_" cx="21.014" cy="21.066" r="20.216"/>
		</defs>
		<clipPath id="SVGID_2_">
			<use xlink:href="#SVGID_1_"  style="overflow:visible;"/>
		</clipPath>
		<path class="st2" d="M12.152,27.946l-4.352,0l0-10.693l4.352,0L12.152,27.946z"/>
		<path class="st3" d="M12.152,27.946l-4.352,0l0-10.693l4.352,0L12.152,27.946z"/>
		<path class="st2" d="M12.152,17.963l-4.352,0c-0.687,0-1.243-0.413-1.243-0.922l0-1.153l6.839,0l0,1.153
			C13.396,17.55,12.839,17.963,12.152,17.963z"/>
		<path class="st3" d="M12.152,18.05l-4.352,0c-0.687,0-1.243-0.568-1.243-1.268l0-1.585l6.839,0l0,1.585
			C13.396,17.482,12.839,18.05,12.152,18.05z"/>
		<path class="st2" d="M13.396,29.648l-6.839,0l0-1.293c0-0.571,0.557-1.034,1.243-1.034l4.352,0c0.687,0,1.243,0.463,1.243,1.034
			L13.396,29.648z"/>
		<path class="st3" d="M13.396,30.171l-6.839,0l0-1.584c0-0.7,0.557-1.267,1.243-1.267l4.352,0c0.687,0,1.243,0.567,1.243,1.267
			L13.396,30.171z"/>
		<path class="st2" d="M34.244,27.948l-4.352,0l0-10.693l4.352,0L34.244,27.948z"/>
		<path class="st3" d="M34.244,27.948l-4.352,0l0-10.693l4.352,0L34.244,27.948z"/>
		<path class="st4" d="M34.244,17.965l-4.352,0c-0.687,0-1.243-0.413-1.243-0.922l0-1.153l6.839,0v1.153
			C35.487,17.552,34.931,17.965,34.244,17.965z"/>
		<path class="st5" d="M34.244,18.052l-4.352,0c-0.687,0-1.243-0.568-1.243-1.268l0-1.585l6.839,0l0,1.585
			C35.487,17.484,34.931,18.052,34.244,18.052z"/>
		<path class="st2" d="M35.487,29.65l-6.839,0l0-1.293c0-0.571,0.557-1.034,1.243-1.034l4.352,0c0.687,0,1.243,0.463,1.243,1.034
			V29.65z"/>
		<path class="st3" d="M35.487,30.173l-6.839,0l0-1.584c0-0.7,0.557-1.267,1.243-1.267l4.352,0c0.687,0,1.243,0.567,1.243,1.267
			L35.487,30.173z"/>
		<path class="st2" d="M5.497,12.666l31.077,0l0,1.855c0,0.238-0.253,0.431-0.565,0.431l-29.947,0c-0.312,0-0.565-0.193-0.565-0.431
			L5.497,12.666z"/>
		<path class="st3" d="M36.574,12.944l0,1.729c0,0.338-0.253,0.612-0.565,0.612l-29.947,0c-0.312,0-0.565-0.274-0.565-0.612l0-1.729
			"/>
		<path class="st6" d="M6.1,30.865l29.883,0c0.311,0,0.564,0.193,0.564,0.431l0,3.057l-31.01,0l0-3.057
			C5.537,31.058,5.789,30.865,6.1,30.865z"/>
		<path class="st5" d="M5.537,32.89v-1.967c0-0.279,0.252-0.506,0.564-0.506l29.883,0c0.311,0,0.564,0.227,0.564,0.506v2.465"/>
		<path class="st2" d="M36.574,12.45l-31.642,0c-0.312,0-0.565-1.093-0.565-1.331l0-2.271c0-0.189,0.16-0.355,0.396-0.412
			l15.488-3.67c0.327-0.078,0.677-0.078,1.005,0l15.488,3.67c0.236,0.057,0.396,0.223,0.396,0.412l0,2.271
			C37.139,11.356,36.886,12.45,36.574,12.45z"/>
		<path class="st3" d="M36.574,12.45l-31.642,0c-0.312,0-0.565-0.193-0.565-0.431l0-3.849c0-0.189,0.16-0.355,0.396-0.412
			l15.488-3.67c0.327-0.078,0.677-0.078,1.005,0l15.488,3.67c0.236,0.057,0.396,0.223,0.396,0.412l0,3.849
			C37.139,12.256,36.886,12.45,36.574,12.45z"/>
		<path class="st7" d="M9.292,9.8V9.777l11.495-3.284c0.09-0.026,0.186-0.026,0.276,0l11.499,3.284V9.8L9.292,9.8z"/>
		<path class="st8" d="M9.405,9.518V9.499l11.322-2.702c0.088-0.021,0.183-0.021,0.271,0L32.324,9.5v0.019L9.405,9.518z"/>
		<path class="st2" d="M37.174,33.391c0.311,0,0.564,0.193,0.564,0.431l0,0.863c0,0.238-0.252,2.874-0.564,2.874l-31.574,0
			c-0.311,0-0.564-2.635-0.564-2.874l0-0.863"/>
		<path class="st3" d="M5.337,33.389l31.574,0c0.311,0,0.491,0.827,0.491,1.199l0,2.249c0,0.372-0.252,0.674-0.564,0.674l-31.574,0
			c-0.311,0-0.564-0.302-0.564-0.674l0-2.249C4.7,34.215,5.026,33.389,5.337,33.389z"/>
		<path class="st9" d="M16.397,17.067l4.812,0c0.953,0,1.663,0.036,2.131,0.108c0.468,0.072,0.887,0.223,1.256,0.452
			c0.37,0.229,0.677,0.534,0.924,0.915s0.37,0.808,0.37,1.28c0,0.513-0.152,0.983-0.456,1.411c-0.304,0.428-0.716,0.749-1.236,0.963
			c0.734,0.194,1.297,0.525,1.692,0.993c0.394,0.468,0.591,1.018,0.591,1.65c0,0.498-0.127,0.982-0.382,1.452
			s-0.602,0.846-1.043,1.127c-0.441,0.281-0.984,0.454-1.63,0.519c-0.405,0.04-1.382,0.065-2.931,0.075l-4.098,0L16.397,17.067z
			 M18.827,18.889l0,2.531l1.593,0c0.947,0,1.536-0.012,1.765-0.037c0.416-0.045,0.743-0.175,0.981-0.392s0.357-0.501,0.357-0.855
			c0-0.338-0.103-0.613-0.308-0.825c-0.205-0.212-0.51-0.34-0.916-0.384c-0.241-0.025-0.933-0.037-2.078-0.037L18.827,18.889z
			 M18.828,23.241l0,2.926l2.25,0c0.876,0,1.432-0.022,1.667-0.067c0.361-0.06,0.656-0.205,0.883-0.437s0.341-0.541,0.341-0.929
			c0-0.328-0.088-0.607-0.263-0.836c-0.175-0.229-0.428-0.396-0.76-0.5s-1.05-0.157-2.156-0.157L18.828,23.241z"/>
	</g>
</g>
</svg>
