<?xml version="1.0" encoding="utf-8"?>
<!-- Generator: Adobe Illustrator 23.1.1, SVG Export Plug-In . SVG Version: 6.00 Build 0)  -->
<svg version="1.1" id="Layer_1" xmlns="http://www.w3.org/2000/svg" xmlns:xlink="http://www.w3.org/1999/xlink" x="0px" y="0px"
	 viewBox="0 0 42 42" style="enable-background:new 0 0 42 42;" xml:space="preserve">
<style type="text/css">
	.st0{fill:#222D4F;}
	.st1{clip-path:url(#SVGID_2_);fill:#F1E881;}
	
		.st2{clip-path:url(#SVGID_2_);fill:none;stroke:#272425;stroke-width:1.1;stroke-linecap:round;stroke-linejoin:round;stroke-miterlimit:10;}
	.st3{clip-path:url(#SVGID_2_);fill:#9CCCE7;}
	.st4{clip-path:url(#SVGID_2_);fill:#272524;}
	.st5{clip-path:url(#SVGID_2_);fill:#EBC7A3;}
	.st6{fill:none;stroke:#222D4F;stroke-width:1.4;stroke-linecap:round;stroke-linejoin:round;stroke-miterlimit:10;}
	.st7{clip-path:url(#SVGID_4_);fill:#F1E881;}
	
		.st8{clip-path:url(#SVGID_4_);fill:none;stroke:#272425;stroke-width:1.1;stroke-linecap:round;stroke-linejoin:round;stroke-miterlimit:10;}
	.st9{clip-path:url(#SVGID_4_);fill:#9CCCE7;}
	.st10{clip-path:url(#SVGID_4_);fill:#272524;}
	.st11{clip-path:url(#SVGID_4_);fill:#EBC7A3;}
</style>
<circle class="st0" cx="-226.478" cy="37.747" r="22.462"/>
<g>
	<defs>
		<circle id="SVGID_1_" cx="-226.478" cy="37.747" r="22.462"/>
	</defs>
	<clipPath id="SVGID_2_">
		<use xlink:href="#SVGID_1_"  style="overflow:visible;"/>
	</clipPath>
	<path class="st1" d="M-227.629,37.78c0.968,0.938,1.779,1.963,2.361,3.714c5.235,0,9.193-0.96,9.193-5.439
		c3.511,0,4.515-2.876,4.515-5.428c3.037,0,5.002-2.432,5.001-5.43h-11.413c-4.694,0-4.694,12.226-9.657,12.226"/>
	<path class="st1" d="M-225.256,37.78c-0.968,0.938-1.779,1.963-2.361,3.714c-5.235,0-9.193-0.96-9.193-5.439
		c-3.511,0-4.515-2.876-4.515-5.428c-3.037,0-5.002-2.432-5.001-5.43h11.413c4.694,0,4.694,12.226,9.657,12.226"/>
	<path class="st2" d="M-227.629,37.78c0.968,0.938,1.779,1.963,2.361,3.714c5.235,0,9.193-0.96,9.193-5.439
		c3.511,0,4.515-2.876,4.515-5.428c3.037,0,5.002-2.432,5.001-5.43h-11.413c-4.694,0-4.694,12.226-9.657,12.226"/>
	<path class="st2" d="M-225.256,37.78c-0.968,0.938-1.779,1.963-2.361,3.714c-5.235,0-9.193-0.96-9.193-5.439
		c-3.511,0-4.515-2.876-4.515-5.428c-3.037,0-5.002-2.432-5.001-5.43h11.413c4.694,0,4.694,12.226,9.657,12.226"/>
	<path class="st3" d="M-225.087,36.256c1.825,0.639,5.474,1.996,5.474,1.996c-0.031,5.205,4.187,10.488,4.664,11.14
		c-1.369,1.011-3.701,2.02-5.227,2.307"/>
	<path class="st3" d="M-227.969,36.285c-1.861,0.647-5.406,1.951-5.406,1.951c-0.031,5.205-4.314,10.478-4.799,11.128
		c1.357,1.014,3.677,2.029,5.199,2.32"/>
	<path class="st3" d="M-230.591,42.071c-0.028,4.666-2.977,11.431-5.302,15.969l7.738,1.503l6.286-0.132l4.522-1.38
		c-2.268-4.543-5.122-11.296-5.094-15.951l-1.353-5.056l-5.667-0.007L-230.591,42.071z"/>
	<path class="st1" d="M-226.683,24.813c-2.999,0-6.025-0.959-6.025-3.102c0-2.142,3.026-3.101,6.025-3.101
		c2.999,0,6.025,0.959,6.025,3.101C-220.657,23.854-223.683,24.813-226.683,24.813z"/>
	<path class="st2" d="M-226.683,24.813c-2.999,0-6.025-0.959-6.025-3.102c0-2.142,3.026-3.101,6.025-3.101
		c2.999,0,6.025,0.959,6.025,3.101C-220.657,23.854-223.683,24.813-226.683,24.813z"/>
	<path class="st4" d="M-226.683,22.404c-1.267,0-2.545-0.214-2.545-0.693c0-0.478,1.278-0.692,2.545-0.692
		c1.267,0,2.546,0.214,2.546,0.692C-224.137,22.19-225.415,22.404-226.683,22.404z"/>
	<path class="st5" d="M-218.973,55.936c1.565-0.65,3.844-2.43,2.413-5.518l-3.616,1.662L-218.973,55.936z"/>
	<path class="st2" d="M-225.087,36.256c1.825,0.639,5.474,1.996,5.474,1.996c-0.031,5.205,4.187,10.488,4.664,11.14
		c-1.369,1.011-3.701,2.02-5.227,2.307"/>
	<path class="st5" d="M-234.212,55.918c-1.558-0.654-3.815-2.439-2.346-5.523l3.58,1.671L-234.212,55.918z"/>
	<path class="st2" d="M-227.969,36.285c-1.861,0.647-5.406,1.951-5.406,1.951c-0.031,5.205-4.314,10.478-4.799,11.128
		c1.357,1.014,3.677,2.029,5.199,2.32"/>
	<path class="st2" d="M-217.348,58.032c-1.94-3.886-4.309-9.389-4.936-13.813"/>
	<path class="st2" d="M-230.734,43.929c-0.62,4.48-3.128,10.145-5.159,14.11"/>
	<path class="st2" d="M-216.561,50.418c1.227,2.647-0.272,4.332-1.711,5.169"/>
	<path class="st2" d="M-236.558,50.394c-1.289,2.706,0.291,4.412,1.749,5.232"/>
	<circle class="st5" cx="-226.48" cy="33.322" r="4.395"/>
	<circle class="st2" cx="-226.48" cy="33.322" r="4.395"/>
	<path class="st2" d="M-219.586,38.492c-0.842,4.071-3.61,7.058-6.895,7.058c-3.311,0-6.097-3.034-6.914-7.154"/>
</g>
<circle class="st6" cx="-226.478" cy="37.747" r="22.462"/>
<g>
	<circle class="st0" cx="20.868" cy="21.285" r="20.317"/>
	<g>
		<defs>
			<circle id="SVGID_3_" cx="20.868" cy="21.285" r="20.317"/>
		</defs>
		<clipPath id="SVGID_4_">
			<use xlink:href="#SVGID_3_"  style="overflow:visible;"/>
		</clipPath>
		<path class="st7" d="M19.827,21.315c0.875,0.849,1.61,1.776,2.136,3.359c4.735,0,8.315-0.868,8.315-4.92
			c3.176,0,4.084-2.601,4.084-4.91c2.747,0,4.524-2.2,4.523-4.911H28.562c-4.246,0-4.246,11.058-8.735,11.058"/>
		<path class="st7" d="M21.973,21.315c-0.875,0.849-1.61,1.776-2.136,3.359c-4.735,0-8.315-0.868-8.315-4.92
			c-3.176,0-4.084-2.601-4.084-4.91c-2.747,0-4.524-2.2-4.523-4.911h10.323c4.246,0,4.246,11.058,8.735,11.058"/>
		<path class="st8" d="M19.827,21.315c0.875,0.849,1.61,1.776,2.136,3.359c4.735,0,8.315-0.868,8.315-4.92
			c3.176,0,4.084-2.601,4.084-4.91c2.747,0,4.524-2.2,4.523-4.911H28.562c-4.246,0-4.246,11.058-8.735,11.058"/>
		<path class="st8" d="M21.973,21.315c-0.875,0.849-1.61,1.776-2.136,3.359c-4.735,0-8.315-0.868-8.315-4.92
			c-3.176,0-4.084-2.601-4.084-4.91c-2.747,0-4.524-2.2-4.523-4.911h10.323c4.246,0,4.246,11.058,8.735,11.058"/>
		<path class="st9" d="M22.127,19.936c1.651,0.578,4.952,1.805,4.952,1.805c-0.028,4.708,3.787,9.487,4.219,10.076
			c-1.239,0.914-3.348,1.827-4.728,2.087"/>
		<path class="st9" d="M19.519,19.962c-1.683,0.585-4.889,1.764-4.889,1.764c-0.028,4.708-3.902,9.478-4.341,10.066
			c1.228,0.917,3.326,1.835,4.702,2.098"/>
		<path class="st9" d="M17.148,25.196c-0.026,4.22-2.693,10.339-4.796,14.444l6.999,1.36l5.685-0.119l4.09-1.248
			c-2.051-4.11-4.633-10.217-4.608-14.428l-1.224-4.573l-5.125-0.006L17.148,25.196z"/>
		<path class="st7" d="M20.683,9.585c-2.712,0-5.449-0.867-5.449-2.805c0-1.937,2.737-2.805,5.449-2.805
			c2.713,0,5.45,0.867,5.45,2.805C26.133,8.718,23.396,9.585,20.683,9.585z"/>
		<path class="st8" d="M20.683,9.585c-2.712,0-5.449-0.867-5.449-2.805c0-1.937,2.737-2.805,5.449-2.805
			c2.713,0,5.45,0.867,5.45,2.805C26.133,8.718,23.396,9.585,20.683,9.585z"/>
		<path class="st10" d="M20.683,7.407c-1.146,0-2.302-0.194-2.302-0.626c0-0.433,1.156-0.626,2.302-0.626
			c1.146,0,2.303,0.194,2.303,0.626C22.985,7.213,21.829,7.407,20.683,7.407z"/>
		<path class="st11" d="M27.656,37.737c1.416-0.588,3.477-2.198,2.182-4.991l-3.271,1.504L27.656,37.737z"/>
		<path class="st8" d="M22.127,19.936c1.651,0.578,4.952,1.805,4.952,1.805c-0.028,4.708,3.787,9.487,4.219,10.076
			c-1.239,0.914-3.348,1.827-4.728,2.087"/>
		<path class="st11" d="M13.873,37.72c-1.409-0.591-3.45-2.206-2.122-4.996l3.239,1.511L13.873,37.72z"/>
		<path class="st8" d="M19.519,19.962c-1.683,0.585-4.889,1.764-4.889,1.764c-0.028,4.708-3.902,9.478-4.341,10.066
			c1.228,0.917,3.326,1.835,4.702,2.098"/>
		<path class="st8" d="M29.126,39.632c-1.754-3.515-3.897-8.492-4.464-12.494"/>
		<path class="st8" d="M17.018,26.877c-0.56,4.052-2.829,9.176-4.666,12.763"/>
		<path class="st8" d="M29.838,32.746c1.11,2.394-0.246,3.918-1.547,4.676"/>
		<path class="st8" d="M11.751,32.724c-1.166,2.448,0.263,3.991,1.582,4.732"/>
		<circle class="st11" cx="20.866" cy="17.282" r="3.976"/>
		<circle class="st8" cx="20.866" cy="17.282" r="3.976"/>
		<path class="st8" d="M27.102,21.959c-0.761,3.682-3.265,6.384-6.237,6.384c-2.995,0-5.515-2.744-6.254-6.471"/>
	</g>
	<circle class="st6" cx="20.868" cy="21.285" r="20.317"/>
</g>
</svg>
