<?xml version="1.0" encoding="utf-8"?>
<!-- Generator: Adobe Illustrator 23.1.1, SVG Export Plug-In . SVG Version: 6.00 Build 0)  -->
<svg version="1.1" id="Layer_1" xmlns="http://www.w3.org/2000/svg" xmlns:xlink="http://www.w3.org/1999/xlink" x="0px" y="0px"
	 viewBox="0 0 42 42" style="enable-background:new 0 0 42 42;" xml:space="preserve">
<style type="text/css">
	.st0{fill:#222D4F;}
	.st1{clip-path:url(#SVGID_2_);fill:#6795CA;}
	
		.st2{clip-path:url(#SVGID_2_);fill:none;stroke:#272425;stroke-width:1.1;stroke-linecap:round;stroke-linejoin:round;stroke-miterlimit:10;}
	.st3{clip-path:url(#SVGID_2_);fill:#AD947C;}
	.st4{clip-path:url(#SVGID_2_);fill:#9CCCE7;}
	.st5{clip-path:url(#SVGID_2_);fill:#91AF49;}
	.st6{opacity:0.3;clip-path:url(#SVGID_2_);fill:#FFFFFF;}
	.st7{fill:none;stroke:#222D4F;stroke-width:1.4;stroke-linecap:round;stroke-linejoin:round;stroke-miterlimit:10;}
</style>
<ellipse transform="matrix(0.6589 -0.7522 0.7522 0.6589 -8.5287 22.9522)" class="st0" cx="21.046" cy="20.881" rx="20.096" ry="20.096"/>
<g>
	<defs>
		
			<ellipse id="SVGID_1_" transform="matrix(0.6589 -0.7522 0.7522 0.6589 -8.6854 23.0232)" cx="21.046" cy="21.089" rx="20.096" ry="20.096"/>
	</defs>
	<clipPath id="SVGID_2_">
		<use xlink:href="#SVGID_1_"  style="overflow:visible;"/>
	</clipPath>
	<polyline class="st1" points="1.407,24.56 -4.391,24.56 -3.083,30.265 -0.406,34.926 1.443,36.368 	"/>
	<polyline class="st1" points="1.407,24.56 -4.391,24.56 -3.083,30.265 -0.406,34.926 1.443,36.368 	"/>
	<line class="st2" x1="1.407" y1="24.56" x2="-4.391" y2="24.56"/>
	<line class="st2" x1="1.407" y1="24.56" x2="-4.391" y2="24.56"/>
	<polyline class="st1" points="42.686,7.015 47.621,3.971 43.512,-0.199 38.786,-2.76 36.456,-3.016 	"/>
	<path class="st3" d="M26.812,6.763c0,0-3.763,2.321-5.017,3.095c-0.012,0.008-0.02,0.021-0.031,0.029
		c-0.763,0.523-0.859,1.778-0.199,2.847c0.66,1.071,1.826,1.548,2.636,1.098c0.06-0.025,0.121-0.041,0.18-0.078l5.017-3.095
		c0,0,5.196,1.613,7.971-2.117c0,0-4.613-7.736-4.659-7.542l-1.434,0.885c0,0-10.403,1.603-10.512,1.87S15.31,10.13,15.31,10.13
		l-1.683,7.761c1.496,1.686,4.802-0.326,4.703-3.604c-0.111-0.032,2.811-3.323,2.811-3.323"/>
	<path class="st2" d="M32.71,1.001l-1.434,0.885c0,0-10.403,1.603-10.512,1.87S15.31,10.13,15.31,10.13l-1.683,7.761
		c1.496,1.686,4.802-0.326,4.703-3.604c-0.111-0.032,2.811-3.323,2.811-3.323"/>
	<path class="st2" d="M26.812,6.763c0,0-3.763,2.321-5.017,3.095c-0.012,0.008-0.02,0.021-0.031,0.029
		c-0.763,0.523-0.859,1.778-0.199,2.847c0.66,1.071,1.826,1.548,2.636,1.098c0.06-0.025,0.121-0.041,0.18-0.078l5.017-3.095
		c0,0,5.196,1.613,7.971-2.117"/>
	
		<rect x="34.89" y="-2.571" transform="matrix(-0.8511 0.5251 -0.5251 -0.8511 71.435 -12.7669)" class="st4" width="5.277" height="12.638"/>
	
		<rect x="34.89" y="-2.571" transform="matrix(-0.8511 0.5251 -0.5251 -0.8511 71.435 -12.7669)" class="st2" width="5.277" height="12.638"/>
	<polyline class="st1" points="42.686,7.015 47.621,3.971 43.512,-0.199 38.786,-2.76 36.456,-3.016 	"/>
	<path class="st3" d="M26.812,6.763c0,0-3.763,2.321-5.017,3.095c-0.012,0.008-0.02,0.021-0.031,0.029
		c-0.763,0.523-0.859,1.778-0.199,2.847c0.66,1.071,1.826,1.548,2.636,1.098c0.06-0.025,0.121-0.041,0.18-0.078l5.017-3.095
		c0,0,5.196,1.613,7.971-2.117c0,0-4.613-7.736-4.659-7.542l-1.434,0.885c0,0-10.403,1.603-10.512,1.87S15.31,10.13,15.31,10.13
		l-1.683,7.761c1.496,1.686,4.802-0.326,4.703-3.604c-0.111-0.032,2.811-3.323,2.811-3.323"/>
	<path class="st2" d="M32.71,1.001l-1.434,0.885c0,0-10.403,1.603-10.512,1.87S15.31,10.13,15.31,10.13l-1.683,7.761
		c1.496,1.686,4.802-0.326,4.703-3.604c-0.111-0.032,2.811-3.323,2.811-3.323"/>
	
		<rect x="34.89" y="-2.571" transform="matrix(-0.8511 0.5251 -0.5251 -0.8511 71.435 -12.7669)" class="st4" width="5.277" height="12.638"/>
	
		<rect x="34.89" y="-2.571" transform="matrix(-0.8511 0.5251 -0.5251 -0.8511 71.435 -12.7669)" class="st2" width="5.277" height="12.638"/>
	<rect x="13.686" y="15.421" class="st5" width="21.314" height="12.698"/>
	
		<ellipse transform="matrix(0.1394 -0.9902 0.9902 0.1394 -0.5872 42.788)" class="st6" cx="24.324" cy="21.732" rx="3.795" ry="3.795"/>
	
		<ellipse transform="matrix(0.1394 -0.9902 0.9902 0.1394 -0.5872 42.788)" class="st2" cx="24.324" cy="21.732" rx="3.795" ry="3.795"/>
	<path class="st2" d="M34.993,22.777c0.002,0,0.005,0,0.007,0l0-2.044c-0.002,0-0.005,0-0.007,0c-2.934,0-5.313-2.379-5.313-5.313
		c0,0,0,0,0,0l-10.687,0c0,0,0,0,0,0c0,2.932-2.376,5.309-5.307,5.312l0,2.044c2.932,0.003,5.307,2.38,5.307,5.312
		c0,0.01-0.001,0.019-0.001,0.029l10.69,0c0-0.01-0.001-0.019-0.001-0.029C29.68,25.156,32.059,22.777,34.993,22.777z"/>
	<path class="st6" d="M18.993,15.421C18.993,15.421,18.993,15.421,18.993,15.421l-5.307,0l0,5.313
		C16.617,20.73,18.993,18.353,18.993,15.421z"/>
	<path class="st6" d="M13.686,22.777l0,5.341l5.306,0c0-0.01,0.001-0.019,0.001-0.029C18.993,25.157,16.617,22.78,13.686,22.777z"/>
	<path class="st6" d="M34.993,20.734c0.002,0,0.005,0,0.007,0l0-5.313l-5.32,0c0,0,0,0,0,0
		C29.681,18.355,32.059,20.734,34.993,20.734z"/>
	<path class="st6" d="M35,22.777c-0.002,0-0.005,0-0.007,0c-2.934,0-5.313,2.378-5.313,5.313c0,0.01,0.001,0.019,0.001,0.029
		l5.318,0L35,22.777z"/>
	<path class="st2" d="M18.993,15.421C18.993,15.421,18.993,15.421,18.993,15.421l-5.307,0l0,5.313
		C16.617,20.73,18.993,18.353,18.993,15.421z"/>
	<path class="st2" d="M13.686,22.777l0,5.341l5.306,0c0-0.01,0.001-0.019,0.001-0.029C18.993,25.157,16.617,22.78,13.686,22.777z"/>
	<path class="st2" d="M34.993,20.734c0.002,0,0.005,0,0.007,0l0-5.313l-5.32,0c0,0,0,0,0,0
		C29.681,18.355,32.059,20.734,34.993,20.734z"/>
	<path class="st2" d="M35,22.777c-0.002,0-0.005,0-0.007,0c-2.934,0-5.313,2.378-5.313,5.313c0,0.01,0.001,0.019,0.001,0.029
		l5.318,0L35,22.777z"/>
	
		<rect x="10.073" y="11.262" transform="matrix(-0.9397 -0.342 0.342 -0.9397 34.1862 41.2486)" class="st5" width="21.314" height="12.698"/>
	
		<ellipse transform="matrix(0.3615 -0.9324 0.9324 0.3615 -3.1371 30.5815)" class="st6" cx="20.76" cy="17.581" rx="3.795" ry="3.795"/>
	
		<ellipse transform="matrix(0.3615 -0.9324 0.9324 0.3615 -3.1371 30.5815)" class="st2" cx="20.76" cy="17.581" rx="3.795" ry="3.795"/>
	<path class="st2" d="M10.377,14.914c-0.002-0.001-0.004-0.001-0.007-0.002l0.699-1.921c0.002,0.001,0.004,0.002,0.006,0.003
		c2.757,1.004,5.806-0.418,6.809-3.175c0,0,0,0,0,0l10.043,3.655c0,0,0,0,0,0c-1.003,2.755,0.416,5.802,3.17,6.807l-0.699,1.921
		c-2.756-1-5.801,0.421-6.804,3.177c-0.003,0.009-0.005,0.018-0.008,0.028L13.541,21.75c0.003-0.009,0.008-0.017,0.011-0.027
		C14.556,18.967,13.134,15.918,10.377,14.914z"/>
	<path class="st6" d="M27.928,13.474C27.928,13.474,27.928,13.474,27.928,13.474l4.987,1.815l-1.817,4.992
		C28.345,19.276,26.925,16.23,27.928,13.474z"/>
	<path class="st6" d="M30.399,22.202l-1.827,5.019l-4.986-1.815c0.003-0.009,0.005-0.018,0.008-0.028
		C24.598,22.623,27.644,21.202,30.399,22.202z"/>
	<path class="st6" d="M11.076,12.994c-0.002-0.001-0.004-0.002-0.006-0.003l1.817-4.992l4.999,1.819c0,0,0,0,0,0
		C16.882,12.576,13.833,13.998,11.076,12.994z"/>
	<path class="st6" d="M10.371,14.912c0.002,0.001,0.004,0.001,0.007,0.002c2.757,1.004,4.179,4.052,3.175,6.809
		c-0.003,0.009-0.008,0.017-0.011,0.027l-4.997-1.819L10.371,14.912z"/>
	<path class="st2" d="M27.928,13.474C27.928,13.474,27.928,13.474,27.928,13.474l4.987,1.815l-1.817,4.992
		C28.345,19.276,26.925,16.23,27.928,13.474z"/>
	<path class="st2" d="M30.399,22.202l-1.827,5.019l-4.986-1.815c0.003-0.009,0.005-0.018,0.008-0.028
		C24.598,22.623,27.644,21.202,30.399,22.202z"/>
	<path class="st2" d="M11.076,12.994c-0.002-0.001-0.004-0.002-0.006-0.003l1.817-4.992l4.999,1.819c0,0,0,0,0,0
		C16.882,12.576,13.833,13.998,11.076,12.994z"/>
	<path class="st2" d="M10.371,14.912c0.002,0.001,0.004,0.001,0.007,0.002c2.757,1.004,4.179,4.052,3.175,6.809
		c-0.003,0.009-0.008,0.017-0.011,0.027l-4.997-1.819L10.371,14.912z"/>
	<path class="st3" d="M26.812,6.763c0,0-4.326,1.794-5.017,3.095c-0.052,0.098-0.35,1.121-0.35,1.121l0.13,1.357l0.465,0.725
		l0.707,0.669l1.097,0.149l1.543-0.725l1.785-0.948c0,0,0.744-1.804,0.744-1.859c0-0.056,0.242-1.097,0.242-1.097L26.812,6.763z"/>
	<path class="st2" d="M26.812,6.763c0,0-3.763,2.321-5.017,3.095c-0.012,0.008-0.02,0.021-0.031,0.029
		c-0.763,0.523-0.859,1.778-0.199,2.847c0.66,1.071,1.826,1.548,2.636,1.098c0.06-0.025,0.121-0.041,0.18-0.078l5.017-3.095
		c0,0,5.196,1.613,7.971-2.117"/>
	<path class="st2" d="M1.114,34.375"/>
	<path class="st3" d="M14.785,33.108c0,0,4.421,0,5.895,0c0.015,0,0.028-0.007,0.042-0.008c0.924-0.045,1.664-1.062,1.664-2.319
		c0-1.258-0.742-2.276-1.667-2.319c-0.065-0.01-0.124-0.028-0.195-0.028H14.63c0,0-3.575-4.101-7.895-2.384
		c0,0-0.136,9.006,0.005,8.865h1.685c0,0,9.696,4.098,9.928,3.927c0.233-0.171,7.989-2.561,7.989-2.561l5.507-5.721
		c-0.388-2.22-4.258-2.244-5.895,0.598c0.078,0.085-4.137,1.352-4.137,1.352"/>
	<path class="st2" d="M6.74,34.916h1.685c0,0,9.696,4.098,9.928,3.927c0.233-0.171,7.989-2.561,7.989-2.561l5.507-5.721
		c-0.388-2.22-4.258-2.244-5.895,0.598c0.078,0.085-4.137,1.352-4.137,1.352"/>
	<path class="st2" d="M14.785,33.108c0,0,4.421,0,5.895,0c0.015,0,0.028-0.007,0.042-0.008c0.924-0.045,1.664-1.062,1.664-2.319
		c0-1.258-0.742-2.276-1.667-2.319c-0.065-0.01-0.124-0.028-0.195-0.028H14.63c0,0-3.575-4.101-7.895-2.384"/>
	<rect x="1.443" y="23.729" class="st4" width="5.277" height="12.638"/>
	<rect x="1.443" y="23.729" class="st2" width="5.277" height="12.638"/>
	<path class="st2" d="M1.114,34.375"/>
	<path class="st3" d="M14.785,33.108c0,0,4.421,0,5.895,0c0.015,0,0.028-0.007,0.042-0.008c0.924-0.045,1.664-1.062,1.664-2.319
		c0-1.258-0.742-2.276-1.667-2.319c-0.065-0.01-0.124-0.028-0.195-0.028H14.63c0,0-3.575-4.101-7.895-2.384
		c0,0-0.136,9.006,0.005,8.865h1.685c0,0,9.696,4.098,9.928,3.927c0.233-0.171,7.989-2.561,7.989-2.561l5.507-5.721
		c-0.388-2.22-4.258-2.244-5.895,0.598c0.078,0.085-4.137,1.352-4.137,1.352"/>
	<path class="st2" d="M6.74,34.916h1.685c0,0,9.696,4.098,9.928,3.927c0.233-0.171,7.989-2.561,7.989-2.561l5.507-5.721
		c-0.388-2.22-4.258-2.244-5.895,0.598c0.078,0.085-4.137,1.352-4.137,1.352"/>
	<path class="st2" d="M14.785,33.108c0,0,4.421,0,5.895,0c0.015,0,0.028-0.007,0.042-0.008c0.924-0.045,1.664-1.062,1.664-2.319
		c0-1.258-0.742-2.276-1.667-2.319c-0.065-0.01-0.124-0.028-0.195-0.028H14.63c0,0-3.575-4.101-7.895-2.384"/>
	<rect x="1.443" y="23.729" class="st4" width="5.277" height="12.638"/>
	<rect x="1.443" y="23.729" class="st2" width="5.277" height="12.638"/>
</g>
<ellipse transform="matrix(0.6589 -0.7522 0.7522 0.6589 -8.6854 23.0232)" class="st7" cx="21.046" cy="21.089" rx="20.096" ry="20.096"/>
</svg>
