<?xml version="1.0" encoding="utf-8"?>
<!-- Generator: Adobe Illustrator 23.1.1, SVG Export Plug-In . SVG Version: 6.00 Build 0)  -->
<svg version="1.1" id="Layer_1" xmlns="http://www.w3.org/2000/svg" xmlns:xlink="http://www.w3.org/1999/xlink" x="0px" y="0px"
	 viewBox="0 0 42 42" style="enable-background:new 0 0 42 42;" xml:space="preserve">
<style type="text/css">
	.st0{fill:#222D4F;}
	.st1{fill:none;stroke:#272425;stroke-width:1.1;stroke-linecap:round;stroke-linejoin:round;stroke-miterlimit:10;}
	.st2{fill:#EBC243;}
	.st3{fill:#F9DD33;}
</style>
<g>
	<circle class="st0" cx="20.894" cy="20.93" r="20.465"/>
	<circle class="st1" cx="20.951" cy="20.93" r="20.465"/>
	<circle class="st2" cx="20.951" cy="4.832" r="2.643"/>
	<circle class="st1" cx="20.951" cy="4.832" r="2.643"/>
	<circle class="st2" cx="5.641" cy="15.956" r="2.643"/>
	<circle class="st2" cx="11.489" cy="33.954" r="2.643"/>
	<circle class="st2" cx="30.413" cy="33.954" r="2.643"/>
	<circle class="st2" cx="36.261" cy="15.956" r="2.643"/>
	
		<ellipse transform="matrix(0.309 -0.9511 0.9511 0.309 -5.4291 34.3879)" class="st1" cx="20.951" cy="20.93" rx="20.465" ry="20.465"/>
	<circle class="st1" cx="5.641" cy="15.956" r="2.643"/>
	
		<ellipse transform="matrix(0.5878 -0.809 0.809 0.5878 -8.2966 25.5774)" class="st1" cx="20.951" cy="20.93" rx="20.465" ry="20.465"/>
	<circle class="st1" cx="11.489" cy="33.954" r="2.643"/>
	
		<ellipse transform="matrix(0.809 -0.5878 0.5878 0.809 -8.3012 16.3119)" class="st1" cx="20.951" cy="20.93" rx="20.465" ry="20.465"/>
	<circle class="st1" cx="30.413" cy="33.954" r="2.643"/>
	<circle class="st1" cx="36.261" cy="15.956" r="2.643"/>
	<circle class="st2" cx="32.276" cy="17.25" r="0.786"/>
	<circle class="st2" cx="27.95" cy="30.564" r="0.786"/>
	<circle class="st2" cx="20.951" cy="9.022" r="0.786"/>
	<circle class="st2" cx="9.626" cy="17.25" r="0.786"/>
	<circle class="st2" cx="13.952" cy="30.564" r="0.786"/>
	<g>
		<path class="st3" d="M16.235,19.771h1.618v1.276h-1.431c-0.018,0.303-0.073,0.575-0.165,0.817
			c-0.075,0.185-0.199,0.377-0.374,0.577c0.199-0.046,0.37-0.069,0.512-0.069c0.182,0,0.418,0.036,0.71,0.107
			c0.399,0.093,0.717,0.139,0.956,0.139c0.196,0,0.366-0.017,0.51-0.051s0.334-0.104,0.569-0.211l0.726,1.591
			c-0.352,0.178-0.662,0.301-0.929,0.368c-0.267,0.068-0.553,0.101-0.859,0.101c-0.335,0-0.717-0.059-1.148-0.176
			c-0.566-0.157-0.916-0.247-1.052-0.272s-0.281-0.037-0.438-0.037c-0.459,0-0.966,0.162-1.521,0.486l-0.689-1.516
			c0.747-0.537,1.121-1.075,1.121-1.612c0-0.028-0.004-0.109-0.011-0.24h-1.11v-1.276h0.795c-0.135-0.47-0.212-0.742-0.23-0.817
			c-0.021-0.114-0.032-0.254-0.032-0.422c0-0.445,0.118-0.844,0.355-1.198c0.237-0.354,0.548-0.611,0.934-0.771
			c0.386-0.16,0.907-0.24,1.561-0.24c0.612,0,1.097,0.069,1.455,0.206s0.66,0.365,0.908,0.683c0.247,0.319,0.417,0.704,0.51,1.156
			l-2.039,0.32c-0.103-0.381-0.222-0.633-0.355-0.758c-0.133-0.125-0.286-0.187-0.456-0.187c-0.206,0-0.374,0.068-0.502,0.203
			c-0.128,0.135-0.192,0.327-0.192,0.577c0,0.132,0.012,0.259,0.037,0.382C16.004,19.026,16.09,19.315,16.235,19.771z"/>
		<path class="st3" d="M28.051,18.297l-1.986,0.315c-0.1-0.253-0.19-0.428-0.27-0.526c-0.08-0.098-0.213-0.197-0.398-0.296v1.545
			c1.082,0.288,1.804,0.593,2.167,0.914c0.48,0.431,0.721,0.977,0.721,1.64c0,0.388-0.086,0.745-0.259,1.069
			c-0.173,0.324-0.393,0.594-0.662,0.812c-0.269,0.217-0.554,0.375-0.857,0.472c-0.303,0.098-0.673,0.156-1.11,0.173v1.009h-0.779
			v-1.009c-0.523-0.046-0.948-0.131-1.273-0.254c-0.326-0.123-0.607-0.293-0.843-0.51s-0.419-0.451-0.547-0.702
			c-0.128-0.251-0.224-0.554-0.288-0.91l2.157-0.251c0.064,0.352,0.15,0.607,0.259,0.763s0.287,0.295,0.536,0.416v-1.886
			c-0.719-0.199-1.229-0.373-1.529-0.519c-0.301-0.146-0.561-0.38-0.782-0.702c-0.221-0.323-0.331-0.715-0.331-1.178
			c0-0.634,0.222-1.164,0.665-1.589c0.443-0.426,1.102-0.662,1.978-0.708v-0.528h0.779v0.528c0.797,0.05,1.407,0.238,1.828,0.566
			C27.648,17.28,27.923,17.728,28.051,18.297z M24.619,17.764c-0.228,0.075-0.386,0.168-0.475,0.279
			c-0.089,0.11-0.133,0.241-0.133,0.391c0,0.157,0.045,0.294,0.135,0.41c0.09,0.117,0.248,0.214,0.473,0.292V17.764z M25.398,23.022
			c0.303-0.068,0.524-0.18,0.665-0.335c0.141-0.156,0.211-0.329,0.211-0.522c0-0.168-0.06-0.322-0.178-0.464
			c-0.119-0.141-0.351-0.272-0.697-0.393V23.022z"/>
	</g>
</g>
</svg>
