<?xml version="1.0" encoding="utf-8"?>
<!-- Generator: Adobe Illustrator 23.1.1, SVG Export Plug-In . SVG Version: 6.00 Build 0)  -->
<svg version="1.1" id="Layer_1" xmlns="http://www.w3.org/2000/svg" xmlns:xlink="http://www.w3.org/1999/xlink" x="0px" y="0px"
	 viewBox="0 0 42 42" style="enable-background:new 0 0 42 42;" xml:space="preserve">
<style type="text/css">
	.st0{fill:#222D4F;}
	.st1{fill:#6795CA;}
	.st2{fill:#91AF49;}
	.st3{fill:#7B9346;}
	.st4{fill:none;stroke:#272425;stroke-width:1.1;stroke-linecap:round;stroke-linejoin:round;stroke-miterlimit:10;}
	.st5{opacity:0.3;fill:#FFFFFF;}
	.st6{fill:#E0D09B;}
	.st7{fill:#E0D09B;stroke:#272425;stroke-width:1.1;stroke-linecap:round;stroke-linejoin:round;stroke-miterlimit:10;}
	.st8{fill:#9CCCE7;}
	.st9{fill:none;stroke:#222D4F;stroke-width:1.4;stroke-linecap:round;stroke-linejoin:round;stroke-miterlimit:10;}
</style>
<g>
	<circle class="st0" cx="21.076" cy="21.076" r="20.109"/>
	<polyline class="st1" points="6.944,23.213 1.142,23.213 2.451,28.923 5.13,33.587 6.98,35.029 	"/>
	<path class="st2" d="M26.23,12.972c3.627,0,15.113,17.985,4.232,17.985l-12.052,0c-10.882,0,0.605-17.985,4.232-17.985
		L26.23,12.972z"/>
	<path class="st3" d="M22.641,12.967c-0.861,0-3.061-2.426-4.404-6.125h6.531v2.91l2.317-2.938c0.91-0.011,3.537-0.021,3.566-0.021
		c-1.349,3.726-3.556,6.173-4.421,6.173"/>
	<path class="st4" d="M6.65,33.035"/>
	<path class="st5" d="M21.527,31.877c-2.955,0-4.173-1.51-4.663-2.776c-1.795-4.641,3.08-13.355,6.293-16.279
		c0.366-0.333,0.72-0.388,1.053-0.022c0.333,0.365,0.518,0.459,0.152,0.791c-3.114,2.833-6.389,11.379-5.042,14.863
		c0.425,1.098,0.627,1.632,2.207,1.632c0.494,0,0.895,0.401,0.895,0.895S22.021,31.877,21.527,31.877z"/>
	<path class="st4" d="M26.23,12.972c3.627,0,15.113,17.985,4.232,17.985l-12.052,0c-10.882,0,0.605-17.985,4.232-17.985
		L26.23,12.972z"/>
	<path class="st4" d="M22.641,12.967c-0.861,0-3.061-2.426-4.404-6.125h6.531v2.91l2.317-2.938c0.91-0.011,3.537-0.021,3.566-0.021
		c-1.349,3.726-3.556,6.173-4.421,6.173"/>
	<path class="st6" d="M20.33,31.768c0,0,4.424,0,5.899,0c0.015,0,0.028-0.007,0.042-0.008c0.925-0.045,1.665-1.063,1.665-2.32
		c0-1.259-0.742-2.278-1.668-2.321c-0.065-0.01-0.125-0.028-0.195-0.028h-5.899c0,0-3.578-4.103-7.9-2.385
		c0,0-0.136,9.012,0.005,8.871h1.686c0,0,9.702,4.101,9.935,3.93c0.233-0.171,7.994-2.563,7.994-2.563l5.511-5.725
		c-0.388-2.222-4.261-2.246-5.899,0.598c0.078,0.085-4.139,1.353-4.139,1.353"/>
	<path class="st4" d="M12.28,33.577h1.686c0,0,9.702,4.101,9.935,3.93c0.233-0.171,7.994-2.563,7.994-2.563l5.511-5.725
		c-0.388-2.222-4.261-2.246-5.899,0.598c0.078,0.085-4.139,1.353-4.139,1.353"/>
	<path class="st7" d="M20.33,31.768c0,0,4.424,0,5.899,0c0.015,0,0.028-0.007,0.042-0.008c0.925-0.045,1.665-1.063,1.665-2.32
		c0-1.259-0.742-2.278-1.668-2.321c-0.065-0.01-0.125-0.028-0.195-0.028h-5.899c0,0-3.578-4.103-7.9-2.385"/>
	<rect x="6.98" y="22.382" class="st8" width="5.281" height="12.647"/>
	<rect x="6.98" y="22.382" class="st4" width="5.281" height="12.647"/>
	<line class="st4" x1="6.944" y1="23.213" x2="1.142" y2="23.213"/>
	<circle class="st9" cx="21.076" cy="21.076" r="20.109"/>
</g>
</svg>
