<?xml version="1.0" encoding="utf-8"?>
<!-- Generator: Adobe Illustrator 23.1.1, SVG Export Plug-In . SVG Version: 6.00 Build 0)  -->
<svg version="1.1" id="Layer_1" xmlns="http://www.w3.org/2000/svg" xmlns:xlink="http://www.w3.org/1999/xlink" x="0px" y="0px"
	 viewBox="0 0 42 42" style="enable-background:new 0 0 42 42;" xml:space="preserve">
<style type="text/css">
	.st0{fill:#222D4F;}
	.st1{fill:#CDA538;}
	.st2{fill:url(#SVGID_1_);}
	.st3{fill:url(#SVGID_2_);}
	.st4{fill:none;stroke:#272425;stroke-width:1.1;stroke-linecap:round;stroke-linejoin:round;stroke-miterlimit:10;}
	.st5{fill:url(#SVGID_3_);}
	.st6{fill:#6795CA;}
	.st7{fill:#AD947C;}
	.st8{fill:#9CCCE7;}
	.st9{fill:none;stroke:#222D4F;stroke-width:1.4;stroke-linecap:round;stroke-linejoin:round;stroke-miterlimit:10;}
</style>
<g>
	
		<ellipse transform="matrix(0.3822 -0.9241 0.9241 0.3822 -6.4439 32.4243)" class="st0" cx="21.027" cy="21.031" rx="20.246" ry="20.246"/>
	<circle class="st1" cx="24.403" cy="18.221" r="3.874"/>
	
		<linearGradient id="SVGID_1_" gradientUnits="userSpaceOnUse" x1="-412.0922" y1="195.1331" x2="-408.9932" y2="195.1331" gradientTransform="matrix(4.489700e-11 -1 1 4.489700e-11 -170.7306 -392.3221)">
		<stop  offset="0.0801" style="stop-color:#FDF1A0"/>
		<stop  offset="1" style="stop-color:#FCEE99"/>
	</linearGradient>
	<circle class="st2" cx="24.403" cy="18.221" r="1.549"/>
	<circle class="st1" cx="16.454" cy="12.741" r="3.874"/>
	
		<linearGradient id="SVGID_2_" gradientUnits="userSpaceOnUse" x1="-406.6124" y1="187.1842" x2="-403.5135" y2="187.1842" gradientTransform="matrix(4.489700e-11 -1 1 4.489700e-11 -170.7306 -392.3221)">
		<stop  offset="0.0801" style="stop-color:#FDF1A0"/>
		<stop  offset="1" style="stop-color:#FCEE99"/>
	</linearGradient>
	<circle class="st3" cx="16.454" cy="12.741" r="1.549"/>
	<circle class="st4" cx="24.403" cy="18.221" r="3.874"/>
	<circle class="st4" cx="16.454" cy="12.741" r="3.874"/>
	<circle class="st1" cx="23.789" cy="6.586" r="3.874"/>
	
		<linearGradient id="SVGID_3_" gradientUnits="userSpaceOnUse" x1="-400.458" y1="194.5194" x2="-397.3591" y2="194.5194" gradientTransform="matrix(4.489700e-11 -1 1 4.489700e-11 -170.7306 -392.3221)">
		<stop  offset="0.0801" style="stop-color:#FDF1A0"/>
		<stop  offset="1" style="stop-color:#FCEE99"/>
	</linearGradient>
	<circle class="st5" cx="23.789" cy="6.586" r="1.549"/>
	<circle class="st4" cx="23.789" cy="6.586" r="3.874"/>
	<polyline class="st6" points="25.238,34.382 25.238,40.683 30.559,38.569 34.905,36.072 36.25,34.348 	"/>
	<path class="st4" d="M34.391,34.655"/>
	<path class="st7" d="M33.21,21.906c0,0,0-4.123,0-5.497c0-0.014-0.007-0.026-0.008-0.039c-0.042-0.862-0.99-1.552-2.162-1.552
		c-1.173,0-2.123,0.692-2.163,1.554c-0.009,0.06-0.026,0.116-0.026,0.182v5.497c0,0-3.824,3.334-2.223,7.363
		c0,0,8.399,0.127,8.267-0.005v-1.571c0,0,3.822-9.042,3.663-9.259c-0.159-0.217-2.388-7.45-2.388-7.45l-5.336-5.136
		c-2.071,0.362-2.093,3.971,0.557,5.497c0.08-0.072,1.261,3.858,1.261,3.858"/>
	<path class="st4" d="M34.896,29.409v-1.571c0,0,3.822-9.042,3.663-9.259c-0.159-0.217-2.388-7.45-2.388-7.45l-5.336-5.136
		c-2.071,0.362-2.093,3.971,0.557,5.497c0.08-0.072,1.261,3.858,1.261,3.858"/>
	<path class="st4" d="M33.21,21.906c0,0,0-4.123,0-5.497c0-0.014-0.007-0.026-0.008-0.039c-0.042-0.862-0.99-1.552-2.162-1.552
		c-1.173,0-2.123,0.692-2.163,1.554c-0.009,0.06-0.026,0.116-0.026,0.182v5.497c0,0-3.824,3.334-2.223,7.363"/>
	
		<rect x="27.896" y="25.994" transform="matrix(-9.950890e-09 -1 1 -9.950890e-09 -1.5307 62.2439)" class="st8" width="4.921" height="11.786"/>
	
		<rect x="27.896" y="25.994" transform="matrix(-9.950890e-09 -1 1 -9.950890e-09 -1.5307 62.2439)" class="st4" width="4.921" height="11.786"/>
	<line class="st4" x1="25.238" y1="34.382" x2="25.238" y2="40.758"/>
	<polyline class="st6" points="16.811,34.382 16.811,40.683 11.49,38.569 7.144,36.072 5.8,34.348 	"/>
	<path class="st4" d="M7.658,34.655"/>
	<path class="st7" d="M8.839,21.906c0,0,0-4.123,0-5.497c0-0.014,0.007-0.026,0.008-0.039c0.042-0.862,0.99-1.552,2.162-1.552
		c1.173,0,2.123,0.692,2.163,1.554c0.009,0.06,0.026,0.116,0.026,0.182l0,5.497c0,0,3.824,3.334,2.223,7.363
		c0,0-8.399,0.127-8.267-0.005l0-1.571c0,0-3.822-9.042-3.663-9.259c0.159-0.217,2.388-7.45,2.388-7.45l5.336-5.136
		c2.071,0.362,2.093,3.971-0.557,5.497c-0.08-0.072-1.261,3.858-1.261,3.858"/>
	<path class="st4" d="M7.153,29.409l0-1.571c0,0-3.822-9.042-3.663-9.259c0.159-0.217,2.388-7.45,2.388-7.45l5.336-5.136
		c2.071,0.362,2.093,3.971-0.557,5.497c-0.08-0.072-1.261,3.858-1.261,3.858"/>
	<path class="st4" d="M8.79,21.906c0,0,0-4.123,0-5.497c0-0.014,0.007-0.026,0.008-0.039c0.042-0.862,0.99-1.552,2.162-1.552
		c1.173,0,2.123,0.692,2.163,1.554c0.009,0.06,0.026,0.116,0.026,0.182l0,5.497c0,0,3.824,3.334,2.223,7.363"/>
	
		<rect x="9.232" y="25.994" transform="matrix(7.851652e-07 -1 1 7.851652e-07 -20.1948 43.5801)" class="st8" width="4.921" height="11.786"/>
	
		<rect x="9.232" y="25.994" transform="matrix(7.851652e-07 -1 1 7.851652e-07 -20.1948 43.5801)" class="st4" width="4.921" height="11.786"/>
	<line class="st4" x1="16.763" y1="34.382" x2="16.763" y2="40.758"/>
	
		<ellipse transform="matrix(0.3822 -0.9241 0.9241 0.3822 -6.392 32.3896)" class="st9" cx="21.027" cy="20.975" rx="20.246" ry="20.246"/>
</g>
</svg>
