<?xml version="1.0" encoding="utf-8"?>
<!-- Generator: Adobe Illustrator 23.1.1, SVG Export Plug-In . SVG Version: 6.00 Build 0)  -->
<svg version="1.1" id="Layer_1" xmlns="http://www.w3.org/2000/svg" xmlns:xlink="http://www.w3.org/1999/xlink" x="0px" y="0px"
	 viewBox="0 0 42 42" style="enable-background:new 0 0 42 42;" xml:space="preserve">
<style type="text/css">
	.st0{fill:#646C84;}
	.st1{fill:#222D4F;stroke:#222D4F;stroke-width:1.4;stroke-linecap:round;stroke-linejoin:round;stroke-miterlimit:10;}
	.st2{fill:#CDA538;}
	.st3{fill:url(#SVGID_1_);}
	.st4{fill:#A98236;}
	.st5{fill:none;stroke:#272425;stroke-width:1.1;stroke-linecap:round;stroke-linejoin:round;stroke-miterlimit:10;}
	.st6{fill:url(#SVGID_2_);}
	.st7{fill:url(#SVGID_3_);}
	.st8{fill:url(#SVGID_4_);}
	.st9{fill:#FCF7C4;}
</style>
<g>
	<ellipse class="st0" cx="21.01" cy="20.93" rx="20.214" ry="20.074"/>
	<ellipse class="st1" cx="21.066" cy="20.93" rx="20.214" ry="20.074"/>
	<path class="st2" d="M21.015,32.398c-6.498,0-11.766-1.497-11.766-3.343v3.616c0,1.846,5.268,3.343,11.766,3.343
		c6.498,0,11.766-1.496,11.766-3.343v-3.616C32.78,30.901,27.513,32.398,21.015,32.398z"/>
	<linearGradient id="SVGID_1_" gradientUnits="userSpaceOnUse" x1="21.0148" y1="34.3844" x2="21.0148" y2="30.3582">
		<stop  offset="0.0801" style="stop-color:#FDF1A0"/>
		<stop  offset="1" style="stop-color:#FCEE99"/>
	</linearGradient>
	<ellipse class="st3" cx="21.015" cy="29.055" rx="11.766" ry="3.343"/>
	<ellipse class="st2" cx="21.015" cy="28.99" rx="9.727" ry="2.559"/>
	<path class="st4" d="M21.015,27.028c4.989,0,9.099,0.988,9.661,2.261c0.043-0.098,0.066-0.197,0.066-0.298
		c0-1.414-4.355-2.559-9.727-2.559s-9.727,1.146-9.727,2.559c0,0.101,0.023,0.2,0.066,0.298
		C11.915,28.016,16.026,27.028,21.015,27.028z"/>
	<path class="st5" d="M21.015,25.374c-6.696,0-12.123,1.595-12.123,3.562v3.854c0,1.967,5.428,3.562,12.123,3.562
		c6.696,0,12.123-1.595,12.123-3.562v-3.854C33.138,26.969,27.71,25.374,21.015,25.374z"/>
	<path class="st2" d="M22.7,26.486c-6.498,0-11.766-1.497-11.766-3.343v3.616c0,1.846,5.268,3.343,11.766,3.343
		c6.498,0,11.766-1.497,11.766-3.343v-3.616C34.466,24.989,29.198,26.486,22.7,26.486z"/>
	<linearGradient id="SVGID_2_" gradientUnits="userSpaceOnUse" x1="22.7002" y1="28.4721" x2="22.7002" y2="24.4459">
		<stop  offset="0.0801" style="stop-color:#FDF1A0"/>
		<stop  offset="1" style="stop-color:#FCEE99"/>
	</linearGradient>
	<ellipse class="st6" cx="22.7" cy="23.143" rx="11.766" ry="3.343"/>
	<ellipse class="st2" cx="22.7" cy="23.078" rx="9.727" ry="2.559"/>
	<path class="st4" d="M22.7,21.115c4.989,0,9.099,0.988,9.661,2.261c0.043-0.098,0.066-0.197,0.066-0.298
		c0-1.414-4.355-2.559-9.727-2.559s-9.727,1.146-9.727,2.559c0,0.101,0.023,0.2,0.066,0.298
		C13.601,22.104,17.712,21.115,22.7,21.115z"/>
	<path class="st5" d="M22.7,19.462c-6.696,0-12.123,1.595-12.123,3.562v3.854c0,1.967,5.428,3.562,12.123,3.562
		c6.696,0,12.123-1.595,12.123-3.562v-3.854C34.824,21.057,29.396,19.462,22.7,19.462z"/>
	<path class="st2" d="M19.329,20.172c-6.498,0-11.766-1.496-11.766-3.343v3.616c0,1.846,5.268,3.343,11.766,3.343
		c6.498,0,11.766-1.497,11.766-3.343v-3.616C31.095,18.675,25.827,20.172,19.329,20.172z"/>
	<linearGradient id="SVGID_3_" gradientUnits="userSpaceOnUse" x1="19.3295" y1="22.1584" x2="19.3295" y2="18.1322">
		<stop  offset="0.0801" style="stop-color:#FDF1A0"/>
		<stop  offset="1" style="stop-color:#FCEE99"/>
	</linearGradient>
	<ellipse class="st7" cx="19.329" cy="16.829" rx="11.766" ry="3.343"/>
	<ellipse class="st2" cx="19.329" cy="16.764" rx="9.727" ry="2.559"/>
	<path class="st4" d="M19.329,14.802c4.989,0,9.099,0.988,9.661,2.261c0.043-0.098,0.066-0.197,0.066-0.298
		c0-1.414-4.355-2.559-9.727-2.559c-5.372,0-9.727,1.146-9.727,2.559c0,0.101,0.023,0.2,0.066,0.298
		C10.23,15.79,14.341,14.802,19.329,14.802z"/>
	<path class="st5" d="M19.329,13.148c-6.696,0-12.123,1.595-12.123,3.562v3.854c0,1.967,5.428,3.562,12.123,3.562
		c6.696,0,12.123-1.595,12.123-3.562v-3.854C31.453,14.743,26.025,13.148,19.329,13.148z"/>
	<path class="st2" d="M22.7,14.26c-6.498,0-11.766-1.497-11.766-3.343v3.616c0,1.846,5.268,3.343,11.766,3.343
		c6.498,0,11.766-1.496,11.766-3.343v-3.616C34.466,12.763,29.198,14.26,22.7,14.26z"/>
	<linearGradient id="SVGID_4_" gradientUnits="userSpaceOnUse" x1="22.7002" y1="16.2461" x2="22.7002" y2="12.2199">
		<stop  offset="0.0801" style="stop-color:#FDF1A0"/>
		<stop  offset="1" style="stop-color:#FCEE99"/>
	</linearGradient>
	<ellipse class="st8" cx="22.7" cy="10.917" rx="11.766" ry="3.343"/>
	<ellipse class="st2" cx="22.7" cy="10.852" rx="9.727" ry="2.559"/>
	<path class="st4" d="M22.7,8.889c4.989,0,9.099,0.988,9.661,2.261c0.043-0.098,0.066-0.197,0.066-0.298
		c0-1.414-4.355-2.559-9.727-2.559s-9.727,1.146-9.727,2.559c0,0.101,0.023,0.2,0.066,0.298C13.601,9.878,17.712,8.889,22.7,8.889z"
		/>
	<path class="st5" d="M22.7,7.236c-6.696,0-12.123,1.595-12.123,3.562v3.854c0,1.967,5.428,3.562,12.123,3.562
		c6.696,0,12.123-1.595,12.123-3.562v-3.854C34.824,8.831,29.396,7.236,22.7,7.236z"/>
	<ellipse class="st9" cx="22.71" cy="13.717" rx="0.864" ry="0.858"/>
	<ellipse class="st9" cx="22.71" cy="8.133" rx="0.864" ry="0.858"/>
	<ellipse class="st9" cx="22.71" cy="19.848" rx="0.864" ry="0.858"/>
	<ellipse class="st9" cx="22.71" cy="26.089" rx="0.864" ry="0.858"/>
	<ellipse class="st9" cx="22.71" cy="31.974" rx="0.864" ry="0.858"/>
</g>
</svg>
