<?xml version="1.0" encoding="utf-8"?>
<!-- Generator: Adobe Illustrator 16.0.3, SVG Export Plug-In . SVG Version: 6.00 Build 0)  -->
<!DOCTYPE svg PUBLIC "-//W3C//DTD SVG 1.1//EN" "http://www.w3.org/Graphics/SVG/1.1/DTD/svg11.dtd">
<svg version="1.1" id="Layer_1" xmlns="http://www.w3.org/2000/svg" xmlns:xlink="http://www.w3.org/1999/xlink" x="0px" y="0px"
	 width="330.046px" height="342.048px" viewBox="0 0 330.046 342.048" enable-background="new 0 0 330.046 342.048"
	 xml:space="preserve">
<g>
	
	<path fill-rule="evenodd" clip-rule="evenodd" fill="#252525" d="M212.214,10.502c46.491-0.018,84.108,37.624,84.076,84.133
		c-0.031,46.283-37.645,83.871-83.946,83.889c-46.492,0.018-84.106-37.623-84.075-84.134
		C128.3,48.108,165.912,10.521,212.214,10.502z"/>
	<path fill-rule="evenodd" clip-rule="evenodd" fill="#252525" d="M218.339,310.382c-5.748,0-11.496-0.05-17.243,0.025
		c-2.17,0.028-2.832-0.554-2.16-2.822c3.436-11.608,0.13-21.015-9.297-28.551c-11.416-9.126-22.948-18.135-33.939-27.755
		c-13.189-11.544-31.499-8.818-42.58,0.494c-1.912,1.606-3.689,3.37-5.562,5.024c-0.615,0.544-1.089,1.624-2.075,1.269
		c-1.12-0.405-0.549-1.53-0.494-2.303c1.471-20.323,7.153-38.951,21.693-54.051c9.501-9.867,20.638-17.716,31.501-25.919
		c1.788-1.35,2.747-0.127,3.912,0.582c15.863,9.653,33.082,14.4,51.635,14.127c17.479-0.257,33.738-4.918,48.603-14.151
		c2.027-1.26,3.293-1.179,5.175,0.254c8.543,6.509,17.214,12.839,25.242,20.009c15.349,13.706,23.503,31.013,26.027,51.206
		c0.963,7.692,1.364,15.416,1.576,23.168c0.185,6.805-2.516,12.102-7.44,16.446c-6.486,5.721-14.251,9.119-22.318,11.863
		c-18.57,6.314-37.823,8.988-57.281,10.468c-4.981,0.378-9.979,0.563-14.969,0.835C218.343,310.527,218.341,310.454,218.339,310.382
		z"/>
	<path fill-rule="evenodd" clip-rule="evenodd" fill="#A1C057" d="M136.394,334.374c-10.716,0.06-20.28-3.157-28.774-9.849
		c-46.084-36.297-78.433-82.077-95.645-138.307c-8.726-28.505,2.693-51.804,30.62-62.703c4.525-1.766,9.009-3.725,13.805-4.699
		c9.038-1.835,16.448,2.618,19.085,11.416c4.047,13.502,8.077,27.01,12.132,40.51c2.933,9.765-0.474,18.146-9.648,22.843
		c-3.535,1.81-7.386,3.006-11.096,4.473c-5.97,2.359-8.019,5.933-7.032,12.264c4.034,25.864,17.844,45.096,39.901,58.695
		c4.697,2.896,9.256,2.525,13.47-1.044c2.191-1.854,4.202-3.922,6.283-5.905c7.572-7.211,20.294-9.078,29.17-1.118
		c10.777,9.666,22.404,18.383,33.607,27.577c7.284,5.978,8.285,14.549,1.984,21.716c-11.359,12.919-24.855,22.385-42.619,24.109
		C139.904,334.521,138.142,334.374,136.394,334.374z"/>
</g>
</svg>
