<?xml version="1.0" encoding="utf-8"?>
<!-- Generator: Adobe Illustrator 23.1.1, SVG Export Plug-In . SVG Version: 6.00 Build 0)  -->
<svg version="1.1" id="Layer_1" xmlns="http://www.w3.org/2000/svg" xmlns:xlink="http://www.w3.org/1999/xlink" x="0px" y="0px"
	 viewBox="0 0 42 42" style="enable-background:new 0 0 42 42;" xml:space="preserve">
<style type="text/css">
	.st0{fill:#222D4F;}
	.st1{clip-path:url(#SVGID_2_);fill:#F1E881;}
	
		.st2{clip-path:url(#SVGID_2_);fill:none;stroke:#272425;stroke-width:1.1;stroke-linecap:round;stroke-linejoin:round;stroke-miterlimit:10;}
	.st3{clip-path:url(#SVGID_2_);fill:#9CCCE7;}
	.st4{clip-path:url(#SVGID_2_);fill:#272524;}
	.st5{clip-path:url(#SVGID_2_);fill:#EBC7A3;}
	.st6{fill:none;stroke:#222D4F;stroke-width:1.4;stroke-linecap:round;stroke-linejoin:round;stroke-miterlimit:10;}
	.st7{clip-path:url(#SVGID_4_);fill:#6795CA;}
	
		.st8{clip-path:url(#SVGID_4_);fill:none;stroke:#272425;stroke-width:1.1;stroke-linecap:round;stroke-linejoin:round;stroke-miterlimit:10;}
	.st9{clip-path:url(#SVGID_4_);fill:#AD947C;}
	.st10{clip-path:url(#SVGID_4_);fill:#9CCCE7;}
	.st11{clip-path:url(#SVGID_4_);fill:#CDA538;}
	.st12{clip-path:url(#SVGID_4_);fill:url(#SVGID_5_);}
	.st13{clip-path:url(#SVGID_4_);fill:url(#SVGID_6_);}
	.st14{clip-path:url(#SVGID_4_);fill:url(#SVGID_7_);}
	.st15{clip-path:url(#SVGID_4_);fill:url(#SVGID_8_);}
</style>
<circle class="st0" cx="-226.478" cy="37.747" r="22.462"/>
<g>
	<defs>
		<circle id="SVGID_1_" cx="-226.478" cy="37.747" r="22.462"/>
	</defs>
	<clipPath id="SVGID_2_">
		<use xlink:href="#SVGID_1_"  style="overflow:visible;"/>
	</clipPath>
	<path class="st1" d="M-227.629,37.78c0.968,0.938,1.779,1.963,2.361,3.714c5.235,0,9.193-0.96,9.193-5.439
		c3.511,0,4.515-2.876,4.515-5.428c3.037,0,5.002-2.432,5.001-5.43h-11.413c-4.694,0-4.694,12.226-9.657,12.226"/>
	<path class="st1" d="M-225.256,37.78c-0.968,0.938-1.779,1.963-2.361,3.714c-5.235,0-9.193-0.96-9.193-5.439
		c-3.511,0-4.515-2.876-4.515-5.428c-3.037,0-5.002-2.432-5.001-5.43h11.413c4.694,0,4.694,12.226,9.657,12.226"/>
	<path class="st2" d="M-227.629,37.78c0.968,0.938,1.779,1.963,2.361,3.714c5.235,0,9.193-0.96,9.193-5.439
		c3.511,0,4.515-2.876,4.515-5.428c3.037,0,5.002-2.432,5.001-5.43h-11.413c-4.694,0-4.694,12.226-9.657,12.226"/>
	<path class="st2" d="M-225.256,37.78c-0.968,0.938-1.779,1.963-2.361,3.714c-5.235,0-9.193-0.96-9.193-5.439
		c-3.511,0-4.515-2.876-4.515-5.428c-3.037,0-5.002-2.432-5.001-5.43h11.413c4.694,0,4.694,12.226,9.657,12.226"/>
	<path class="st3" d="M-225.087,36.256c1.825,0.639,5.474,1.996,5.474,1.996c-0.031,5.205,4.187,10.488,4.664,11.14
		c-1.369,1.011-3.701,2.02-5.227,2.307"/>
	<path class="st3" d="M-227.969,36.285c-1.861,0.647-5.406,1.951-5.406,1.951c-0.031,5.205-4.314,10.478-4.799,11.128
		c1.357,1.014,3.677,2.029,5.199,2.32"/>
	<path class="st3" d="M-230.591,42.071c-0.028,4.666-2.977,11.431-5.302,15.969l7.738,1.503l6.286-0.132l4.522-1.38
		c-2.268-4.543-5.122-11.296-5.094-15.951l-1.353-5.056l-5.667-0.007L-230.591,42.071z"/>
	<path class="st1" d="M-226.683,24.813c-2.999,0-6.025-0.959-6.025-3.102c0-2.142,3.026-3.101,6.025-3.101
		c2.999,0,6.025,0.959,6.025,3.101C-220.657,23.854-223.683,24.813-226.683,24.813z"/>
	<path class="st2" d="M-226.683,24.813c-2.999,0-6.025-0.959-6.025-3.102c0-2.142,3.026-3.101,6.025-3.101
		c2.999,0,6.025,0.959,6.025,3.101C-220.657,23.854-223.683,24.813-226.683,24.813z"/>
	<path class="st4" d="M-226.683,22.404c-1.267,0-2.545-0.214-2.545-0.693c0-0.478,1.278-0.692,2.545-0.692
		c1.267,0,2.546,0.214,2.546,0.692C-224.137,22.19-225.415,22.404-226.683,22.404z"/>
	<path class="st5" d="M-218.973,55.936c1.565-0.65,3.844-2.43,2.413-5.518l-3.616,1.662L-218.973,55.936z"/>
	<path class="st2" d="M-225.087,36.256c1.825,0.639,5.474,1.996,5.474,1.996c-0.031,5.205,4.187,10.488,4.664,11.14
		c-1.369,1.011-3.701,2.02-5.227,2.307"/>
	<path class="st5" d="M-234.212,55.918c-1.558-0.654-3.815-2.439-2.346-5.523l3.58,1.671L-234.212,55.918z"/>
	<path class="st2" d="M-227.969,36.285c-1.861,0.647-5.406,1.951-5.406,1.951c-0.031,5.205-4.314,10.478-4.799,11.128
		c1.357,1.014,3.677,2.029,5.199,2.32"/>
	<path class="st2" d="M-217.348,58.032c-1.94-3.886-4.309-9.389-4.936-13.813"/>
	<path class="st2" d="M-230.734,43.929c-0.62,4.48-3.128,10.145-5.159,14.11"/>
	<path class="st2" d="M-216.561,50.418c1.227,2.647-0.272,4.332-1.711,5.169"/>
	<path class="st2" d="M-236.558,50.394c-1.289,2.706,0.291,4.412,1.749,5.232"/>
	<circle class="st5" cx="-226.48" cy="33.322" r="4.395"/>
	<circle class="st2" cx="-226.48" cy="33.322" r="4.395"/>
	<path class="st2" d="M-219.586,38.492c-0.842,4.071-3.61,7.058-6.895,7.058c-3.311,0-6.097-3.034-6.914-7.154"/>
</g>
<circle class="st6" cx="-226.478" cy="37.747" r="22.462"/>
<g>
	
		<ellipse transform="matrix(0.8318 -0.555 0.555 0.8318 -7.9392 15.2654)" class="st0" cx="21.223" cy="20.735" rx="20.034" ry="20.034"/>
	<g>
		<defs>
			
				<ellipse id="SVGID_3_" transform="matrix(0.8318 -0.555 0.555 0.8318 -7.9392 15.2654)" cx="21.223" cy="20.735" rx="20.034" ry="20.034"/>
		</defs>
		<clipPath id="SVGID_4_">
			<use xlink:href="#SVGID_3_"  style="overflow:visible;"/>
		</clipPath>
		<polyline class="st7" points="42.933,6.084 47.852,3.049 43.756,-1.107 39.045,-3.66 36.722,-3.915 		"/>
		<path class="st8" d="M38.044-2.397"/>
		<path class="st9" d="M27.108,5.833c0,0-3.751,2.314-5.002,3.086c-0.012,0.008-0.02,0.021-0.031,0.029
			c-0.761,0.522-0.856,1.772-0.198,2.838c0.658,1.067,1.821,1.543,2.628,1.095c0.06-0.025,0.12-0.041,0.18-0.078l5.002-3.086
			c0,0,5.18,1.608,7.946-2.11c0,0-4.599-7.713-4.645-7.519l-1.429,0.882c0,0-10.371,1.598-10.479,1.865
			c-0.108,0.267-5.438,6.355-5.438,6.355l-1.678,7.737c1.491,1.681,4.787-0.325,4.689-3.593c-0.111-0.032,2.802-3.312,2.802-3.312"
			/>
		<path class="st8" d="M32.988,0.089l-1.429,0.882c0,0-10.371,1.598-10.479,1.865c-0.108,0.267-5.438,6.355-5.438,6.355
			l-1.678,7.737c1.491,1.681,4.787-0.325,4.689-3.593c-0.111-0.032,2.802-3.312,2.802-3.312"/>
		<path class="st8" d="M27.108,5.833c0,0-3.751,2.314-5.002,3.086c-0.012,0.008-0.02,0.021-0.031,0.029
			c-0.761,0.522-0.856,1.772-0.198,2.838c0.658,1.067,1.821,1.543,2.628,1.095c0.06-0.025,0.12-0.041,0.18-0.078l5.002-3.086
			c0,0,5.18,1.608,7.946-2.11"/>
		
			<rect x="35.16" y="-3.472" transform="matrix(-0.8511 0.5251 -0.5251 -0.8511 71.4376 -14.6087)" class="st10" width="5.261" height="12.599"/>
		
			<rect x="35.16" y="-3.472" transform="matrix(-0.8511 0.5251 -0.5251 -0.8511 71.4376 -14.6087)" class="st8" width="5.261" height="12.599"/>
		<circle class="st11" cx="22.176" cy="17.69" r="3.833"/>
		<linearGradient id="SVGID_5_" gradientUnits="userSpaceOnUse" x1="20.6429" y1="17.6897" x2="23.7093" y2="17.6897">
			<stop  offset="0.0801" style="stop-color:#FDF1A0"/>
			<stop  offset="1" style="stop-color:#FCEE99"/>
		</linearGradient>
		<circle class="st12" cx="22.176" cy="17.69" r="1.533"/>
		<circle class="st8" cx="22.176" cy="17.69" r="3.833"/>
		<circle class="st11" cx="23.964" cy="27.078" r="3.833"/>
		<linearGradient id="SVGID_6_" gradientUnits="userSpaceOnUse" x1="22.4309" y1="27.0783" x2="25.4973" y2="27.0783">
			<stop  offset="0.0801" style="stop-color:#FDF1A0"/>
			<stop  offset="1" style="stop-color:#FCEE99"/>
		</linearGradient>
		<circle class="st13" cx="23.964" cy="27.078" r="1.533"/>
		<circle class="st8" cx="23.964" cy="27.078" r="3.833"/>
		<polyline class="st7" points="1.781,23.575 -3.999,23.575 -2.695,29.263 -0.026,33.909 1.817,35.346 		"/>
		<path class="st8" d="M1.489,33.36"/>
		<path class="st9" d="M15.118,32.097c0,0,4.408,0,5.877,0c0.015,0,0.027-0.007,0.042-0.008c0.921-0.045,1.659-1.059,1.659-2.312
			c0-1.254-0.739-2.269-1.662-2.312c-0.064-0.01-0.124-0.028-0.194-0.028h-5.877c0,0-3.564-4.088-7.871-2.376
			c0,0-0.136,8.979,0.005,8.838h1.68c0,0,9.666,4.086,9.898,3.915s7.965-2.553,7.965-2.553l5.49-5.704
			c-0.387-2.213-4.245-2.237-5.877,0.596c0.077,0.085-4.124,1.348-4.124,1.348"/>
		<path class="st8" d="M7.097,33.899h1.68c0,0,9.666,4.086,9.898,3.915s7.965-2.553,7.965-2.553l5.49-5.704
			c-0.387-2.213-4.245-2.237-5.877,0.596c0.077,0.085-4.124,1.348-4.124,1.348"/>
		<path class="st8" d="M15.118,32.097c0,0,4.408,0,5.877,0c0.015,0,0.027-0.007,0.042-0.008c0.921-0.045,1.659-1.059,1.659-2.312
			c0-1.254-0.739-2.269-1.662-2.312c-0.064-0.01-0.124-0.028-0.194-0.028h-5.877c0,0-3.564-4.088-7.871-2.376"/>
		<rect x="1.817" y="22.747" class="st10" width="5.261" height="12.599"/>
		<rect x="1.817" y="22.747" class="st8" width="5.261" height="12.599"/>
		<line class="st8" x1="1.781" y1="23.575" x2="-3.999" y2="23.575"/>
		<polyline class="st7" points="42.933,6.084 47.852,3.049 43.756,-1.107 39.045,-3.66 36.722,-3.915 		"/>
		<path class="st8" d="M38.044-2.397"/>
		<path class="st9" d="M27.108,5.833c0,0-3.751,2.314-5.002,3.086c-0.012,0.008-0.02,0.021-0.031,0.029
			c-0.761,0.522-0.856,1.772-0.198,2.838c0.658,1.067,1.821,1.543,2.628,1.095c0.06-0.025,0.12-0.041,0.18-0.078l5.002-3.086
			c0,0,5.18,1.608,7.946-2.11c0,0-4.599-7.713-4.645-7.519l-1.429,0.882c0,0-10.371,1.598-10.479,1.865
			c-0.108,0.267-5.438,6.355-5.438,6.355l-1.678,7.737c1.491,1.681,4.787-0.325,4.689-3.593c-0.111-0.032,2.802-3.312,2.802-3.312"
			/>
		<path class="st8" d="M32.988,0.089l-1.429,0.882c0,0-10.371,1.598-10.479,1.865c-0.108,0.267-5.438,6.355-5.438,6.355
			l-1.678,7.737c1.491,1.681,4.787-0.325,4.689-3.593c-0.111-0.032,2.802-3.312,2.802-3.312"/>
		<path class="st8" d="M27.108,5.833c0,0-3.751,2.314-5.002,3.086c-0.012,0.008-0.02,0.021-0.031,0.029
			c-0.761,0.522-0.856,1.772-0.198,2.838c0.658,1.067,1.821,1.543,2.628,1.095c0.06-0.025,0.12-0.041,0.18-0.078l5.002-3.086
			c0,0,5.18,1.608,7.946-2.11"/>
		
			<rect x="35.16" y="-3.472" transform="matrix(-0.8511 0.5251 -0.5251 -0.8511 71.4376 -14.6087)" class="st10" width="5.261" height="12.599"/>
		
			<rect x="35.16" y="-3.472" transform="matrix(-0.8511 0.5251 -0.5251 -0.8511 71.4376 -14.6087)" class="st8" width="5.261" height="12.599"/>
		<circle class="st11" cx="22.176" cy="17.69" r="3.833"/>
		<linearGradient id="SVGID_7_" gradientUnits="userSpaceOnUse" x1="20.6429" y1="17.6897" x2="23.7093" y2="17.6897">
			<stop  offset="0.0801" style="stop-color:#FDF1A0"/>
			<stop  offset="1" style="stop-color:#FCEE99"/>
		</linearGradient>
		<circle class="st14" cx="22.176" cy="17.69" r="1.533"/>
		<circle class="st8" cx="22.176" cy="17.69" r="3.833"/>
		<circle class="st11" cx="23.964" cy="27.078" r="3.833"/>
		<linearGradient id="SVGID_8_" gradientUnits="userSpaceOnUse" x1="22.4309" y1="27.0783" x2="25.4973" y2="27.0783">
			<stop  offset="0.0801" style="stop-color:#FDF1A0"/>
			<stop  offset="1" style="stop-color:#FCEE99"/>
		</linearGradient>
		<circle class="st15" cx="23.964" cy="27.078" r="1.533"/>
		<circle class="st8" cx="23.964" cy="27.078" r="3.833"/>
		<polyline class="st7" points="1.781,23.575 -3.999,23.575 -2.695,29.263 -0.026,33.909 1.817,35.346 		"/>
		<path class="st8" d="M1.489,33.36"/>
		<path class="st9" d="M15.118,32.097c0,0,4.408,0,5.877,0c0.015,0,0.027-0.007,0.042-0.008c0.921-0.045,1.659-1.059,1.659-2.312
			c0-1.254-0.739-2.269-1.662-2.312c-0.064-0.01-0.124-0.028-0.194-0.028h-5.877c0,0-3.564-4.088-7.871-2.376
			c0,0-0.136,8.979,0.005,8.838h1.68c0,0,9.666,4.086,9.898,3.915s7.965-2.553,7.965-2.553l5.49-5.704
			c-0.387-2.213-4.245-2.237-5.877,0.596c0.077,0.085-4.124,1.348-4.124,1.348"/>
		<path class="st8" d="M7.097,33.899h1.68c0,0,9.666,4.086,9.898,3.915s7.965-2.553,7.965-2.553l5.49-5.704
			c-0.387-2.213-4.245-2.237-5.877,0.596c0.077,0.085-4.124,1.348-4.124,1.348"/>
		<path class="st8" d="M15.118,32.097c0,0,4.408,0,5.877,0c0.015,0,0.027-0.007,0.042-0.008c0.921-0.045,1.659-1.059,1.659-2.312
			c0-1.254-0.739-2.269-1.662-2.312c-0.064-0.01-0.124-0.028-0.194-0.028h-5.877c0,0-3.564-4.088-7.871-2.376"/>
		<rect x="1.817" y="22.747" class="st10" width="5.261" height="12.599"/>
		<rect x="1.817" y="22.747" class="st8" width="5.261" height="12.599"/>
		<line class="st8" x1="1.781" y1="23.575" x2="-3.999" y2="23.575"/>
	</g>
	
		<ellipse transform="matrix(0.8318 -0.555 0.555 0.8318 -7.9392 15.2654)" class="st6" cx="21.223" cy="20.735" rx="20.034" ry="20.034"/>
</g>
</svg>
