<?xml version="1.0" encoding="utf-8"?>
<!-- Generator: Adobe Illustrator 23.1.1, SVG Export Plug-In . SVG Version: 6.00 Build 0)  -->
<svg version="1.1" id="Layer_1" xmlns="http://www.w3.org/2000/svg" xmlns:xlink="http://www.w3.org/1999/xlink" x="0px" y="0px"
	 viewBox="0 0 42 42" style="enable-background:new 0 0 42 42;" xml:space="preserve">
<style type="text/css">
	.st0{fill:#222D4F;}
	.st1{fill:none;stroke:#222D4F;stroke-width:1.4;stroke-linecap:round;stroke-linejoin:round;stroke-miterlimit:10;}
	.st2{fill:#F6F1E1;}
	.st3{fill:#F9DD33;}
	.st4{fill:#B0B0B1;}
	.st5{fill:#FAF7D3;}
	.st6{fill:#9A999B;}
	.st7{fill:#F2E982;stroke:#272425;stroke-width:1.1;stroke-linecap:round;stroke-linejoin:round;stroke-miterlimit:10;}
	.st8{fill:none;stroke:#272425;stroke-width:1.1;stroke-linecap:round;stroke-linejoin:round;stroke-miterlimit:10;}
	.st9{fill:#E9E8E9;}
	.st10{fill:#646C84;}
</style>
<g>
	<circle class="st0" cx="21.275" cy="20.804" r="20.402"/>
	
		<ellipse transform="matrix(0.7899 -0.6133 0.6133 0.7899 -8.4839 17.3509)" class="st1" cx="21.079" cy="21.056" rx="20.402" ry="20.402"/>
	<path class="st2" d="M23.139,34.155"/>
	<path class="st3" d="M34.398,30.122c-0.614-0.787-1.721-10.585-0.044-16.142l-4.949-2.484L14.117,11.82l-4.492,2.055
		c0.37,2.417,0.283,10.783,0.325,13.209c0.005,0.31,2.518,0.622,2.52,0.929c0.001,0.301-2.509,0.598-2.511,0.896
		c-0.051,6.993-0.783,6.975-0.783,6.975c12.567,0.691,20.698-4.861,25.161-5.619"/>
	<path class="st4" d="M8.993,7.193c-2.031,1.57-1.419,5.81-0.198,6.709c7.52-2.296,18.159-2.23,25.815,0.106
		c0.791-0.612,1.205-1.487,1.351-2.402c0.053-0.333-3.179-0.673-3.191-1.006c-0.011-0.295,3.206-0.584,3.151-0.863
		c-0.202-1.039-0.683-2.365-1.244-2.692C25.755,9.649,17.287,9.502,8.993,7.193z"/>
	<path class="st5" d="M34.725,34.67c1.398-0.841,1.636-2.974,0.536-4.491c-2.673,0.372-12.122,3.976-12.122,3.976
		C25.433,33.399,30.617,32.533,34.725,34.67"/>
	<path class="st6" d="M7.783,8.6L6.328,8.599c-0.808,0.722-0.848,3.132-0.074,3.92c0.86,0.001,1.393,0.001,1.393,0.001"/>
	<path class="st7" d="M9.626,13.874c0.37,2.417,0.283,10.419,0.325,12.845c0.005,0.31,2.646,1.294,2.646,1.294
		s-2.633,0.599-2.637,0.896c-0.051,3.624-0.783,6.975-0.783,6.975c13.488,0.741,21.867-5.708,26.084-5.705
		c1.099,1.517,0.862,3.65-0.536,4.491c-4.108-2.137-9.292-1.271-11.586-0.515"/>
	<path class="st8" d="M34.354,13.98c-1.677,5.557-0.57,15.356,0.044,16.142"/>
	<path class="st7" d="M7.783,8.6L6.328,8.599c-0.808,0.722-0.848,3.132-0.074,3.92c0.86,0.001,1.393,0.001,1.393,0.001"/>
	<path class="st9" d="M7.977,10.159l0.124-1.342C19.91,10.667,25,10.57,35.767,8.529l-0.624,2.065
		C30.362,11.175,14.218,11.32,7.977,10.159z"/>
	<path class="st7" d="M8.993,7.193c-2.031,1.57-1.419,5.81-0.198,6.709c7.52-2.296,18.159-2.23,25.815,0.106
		c0.791-0.612,1.205-1.487,1.351-2.402c0.053-0.333-3.179-0.673-3.191-1.006c-0.011-0.295,3.206-0.584,3.151-0.863
		c-0.202-1.039-0.683-2.365-1.244-2.692C25.755,9.649,17.287,9.502,8.993,7.193z"/>
	<path class="st10" d="M16.157,25.757h-1.495v-5.636c-0.546,0.511-1.19,0.889-1.932,1.134v-1.357c0.39-0.128,0.814-0.37,1.272-0.726
		c0.458-0.357,0.772-0.773,0.942-1.248h1.213V25.757z"/>
	<path class="st10" d="M16.964,25.757v-1.495h1.495v1.495H16.964z"/>
	<path class="st10" d="M18.855,23.751l1.49-0.154c0.043,0.337,0.169,0.604,0.378,0.801c0.209,0.197,0.451,0.295,0.724,0.295
		c0.312,0,0.577-0.127,0.793-0.381s0.325-0.636,0.325-1.147c0-0.479-0.107-0.838-0.322-1.078c-0.215-0.239-0.494-0.359-0.838-0.359
		c-0.429,0-0.814,0.19-1.155,0.569l-1.213-0.176l0.766-4.061h3.954v1.4h-2.821l-0.234,1.325c0.334-0.167,0.674-0.25,1.022-0.25
		c0.663,0,1.226,0.241,1.687,0.724c0.461,0.483,0.692,1.109,0.692,1.879c0,0.642-0.186,1.215-0.559,1.719
		c-0.507,0.688-1.212,1.032-2.113,1.032c-0.72,0-1.307-0.193-1.762-0.58C19.215,24.923,18.943,24.403,18.855,23.751z"/>
	<path class="st10" d="M24.067,19.882c0-0.699,0.153-1.217,0.46-1.554c0.307-0.337,0.723-0.506,1.248-0.506
		c0.543,0,0.968,0.168,1.275,0.503c0.307,0.335,0.46,0.854,0.46,1.557c0,0.699-0.153,1.217-0.46,1.554
		c-0.307,0.337-0.723,0.506-1.248,0.506c-0.543,0-0.968-0.168-1.275-0.503C24.22,21.103,24.067,20.584,24.067,19.882z
		 M25.232,19.871c0,0.507,0.059,0.848,0.176,1.022c0.089,0.128,0.211,0.192,0.367,0.192c0.16,0,0.284-0.064,0.373-0.192
		c0.114-0.174,0.17-0.514,0.17-1.022s-0.057-0.846-0.17-1.016c-0.089-0.131-0.213-0.197-0.373-0.197
		c-0.156,0-0.279,0.064-0.367,0.192C25.291,19.023,25.232,19.364,25.232,19.871z M26.453,26.055h-1.107l4.156-8.233h1.075
		L26.453,26.055z M28.59,24.006c0-0.699,0.153-1.217,0.46-1.554c0.307-0.337,0.726-0.506,1.259-0.506
		c0.536,0,0.957,0.169,1.264,0.506c0.307,0.337,0.46,0.855,0.46,1.554c0,0.702-0.153,1.222-0.46,1.559
		c-0.307,0.337-0.723,0.506-1.248,0.506c-0.543,0-0.968-0.169-1.275-0.506C28.744,25.228,28.59,24.708,28.59,24.006z M29.756,24.001
		c0,0.507,0.059,0.846,0.176,1.016c0.089,0.131,0.211,0.197,0.367,0.197c0.16,0,0.282-0.064,0.367-0.192
		c0.117-0.174,0.176-0.514,0.176-1.022c0-0.507-0.057-0.848-0.17-1.022c-0.089-0.128-0.213-0.192-0.373-0.192
		s-0.282,0.064-0.367,0.192C29.814,23.153,29.756,23.493,29.756,24.001z"/>
</g>
</svg>
