<?xml version="1.0" encoding="utf-8"?>
<!-- Generator: Adobe Illustrator 23.1.1, SVG Export Plug-In . SVG Version: 6.00 Build 0)  -->
<svg version="1.1" id="Layer_1" xmlns="http://www.w3.org/2000/svg" xmlns:xlink="http://www.w3.org/1999/xlink" x="0px" y="0px"
	 viewBox="0 0 42 42" style="enable-background:new 0 0 42 42;" xml:space="preserve">
<style type="text/css">
	.st0{fill:#222D4F;}
	.st1{clip-path:url(#SVGID_2_);fill:#F1E881;}
	
		.st2{clip-path:url(#SVGID_2_);fill:none;stroke:#272425;stroke-width:1.1;stroke-linecap:round;stroke-linejoin:round;stroke-miterlimit:10;}
	.st3{clip-path:url(#SVGID_2_);fill:#9CCCE7;}
	.st4{clip-path:url(#SVGID_2_);fill:#272524;}
	.st5{clip-path:url(#SVGID_2_);fill:#EBC7A3;}
	.st6{fill:none;stroke:#222D4F;stroke-width:1.4;stroke-linecap:round;stroke-linejoin:round;stroke-miterlimit:10;}
	.st7{fill:none;stroke:#FFFFFF;stroke-width:3;stroke-linecap:round;stroke-linejoin:round;}
	.st8{fill:#FFFFFF;}
	.st9{clip-path:url(#SVGID_4_);fill:#91AF49;}
	.st10{clip-path:url(#SVGID_4_);fill:#7B9346;}
	.st11{opacity:0.3;clip-path:url(#SVGID_4_);fill:#FFFFFF;}
	
		.st12{clip-path:url(#SVGID_4_);fill:none;stroke:#272425;stroke-width:1.1;stroke-linecap:round;stroke-linejoin:round;stroke-miterlimit:10;}
	.st13{clip-path:url(#SVGID_4_);fill:#F2E982;}
	.st14{clip-path:url(#SVGID_4_);fill:#F1E881;}
	.st15{clip-path:url(#SVGID_4_);fill:#E9E8E9;}
	
		.st16{clip-path:url(#SVGID_4_);fill:none;stroke:#F2E982;stroke-width:1.5;stroke-linecap:round;stroke-linejoin:round;stroke-miterlimit:10;}
	
		.st17{clip-path:url(#SVGID_4_);fill:none;stroke:#CCA2A9;stroke-width:1.5;stroke-linecap:round;stroke-linejoin:round;stroke-miterlimit:10;}
	.st18{clip-path:url(#SVGID_4_);fill:none;}
	.st19{clip-path:url(#SVGID_4_);fill:#9CCCE7;}
	.st20{clip-path:url(#SVGID_6_);fill:#91AF49;}
	.st21{clip-path:url(#SVGID_6_);fill:#7B9346;}
	.st22{opacity:0.3;clip-path:url(#SVGID_6_);fill:#FFFFFF;}
	
		.st23{clip-path:url(#SVGID_6_);fill:none;stroke:#272425;stroke-width:1.1;stroke-linecap:round;stroke-linejoin:round;stroke-miterlimit:10;}
	.st24{clip-path:url(#SVGID_6_);fill:#F2E982;}
	.st25{clip-path:url(#SVGID_6_);fill:#F1E881;}
	.st26{clip-path:url(#SVGID_6_);fill:#E9E8E9;}
	
		.st27{clip-path:url(#SVGID_6_);fill:none;stroke:#F2E982;stroke-width:1.5;stroke-linecap:round;stroke-linejoin:round;stroke-miterlimit:10;}
	
		.st28{clip-path:url(#SVGID_6_);fill:none;stroke:#CCA2A9;stroke-width:1.5;stroke-linecap:round;stroke-linejoin:round;stroke-miterlimit:10;}
	.st29{clip-path:url(#SVGID_6_);fill:none;}
	.st30{clip-path:url(#SVGID_6_);fill:#9CCCE7;}
</style>
<circle class="st0" cx="-226.478" cy="37.747" r="22.462"/>
<g>
	<defs>
		<circle id="SVGID_1_" cx="-226.478" cy="37.747" r="22.462"/>
	</defs>
	<clipPath id="SVGID_2_">
		<use xlink:href="#SVGID_1_"  style="overflow:visible;"/>
	</clipPath>
	<path class="st1" d="M-227.629,37.78c0.968,0.938,1.779,1.963,2.361,3.714c5.235,0,9.193-0.96,9.193-5.439
		c3.511,0,4.515-2.876,4.515-5.428c3.037,0,5.002-2.432,5.001-5.43h-11.413c-4.694,0-4.694,12.226-9.657,12.226"/>
	<path class="st1" d="M-225.256,37.78c-0.968,0.938-1.779,1.963-2.361,3.714c-5.235,0-9.193-0.96-9.193-5.439
		c-3.511,0-4.515-2.876-4.515-5.428c-3.037,0-5.002-2.432-5.001-5.43h11.413c4.694,0,4.694,12.226,9.657,12.226"/>
	<path class="st2" d="M-227.629,37.78c0.968,0.938,1.779,1.963,2.361,3.714c5.235,0,9.193-0.96,9.193-5.439
		c3.511,0,4.515-2.876,4.515-5.428c3.037,0,5.002-2.432,5.001-5.43h-11.413c-4.694,0-4.694,12.226-9.657,12.226"/>
	<path class="st2" d="M-225.256,37.78c-0.968,0.938-1.779,1.963-2.361,3.714c-5.235,0-9.193-0.96-9.193-5.439
		c-3.511,0-4.515-2.876-4.515-5.428c-3.037,0-5.002-2.432-5.001-5.43h11.413c4.694,0,4.694,12.226,9.657,12.226"/>
	<path class="st3" d="M-225.087,36.256c1.825,0.639,5.474,1.996,5.474,1.996c-0.031,5.205,4.187,10.488,4.664,11.14
		c-1.369,1.011-3.701,2.02-5.227,2.307"/>
	<path class="st3" d="M-227.969,36.285c-1.861,0.647-5.406,1.951-5.406,1.951c-0.031,5.205-4.314,10.478-4.799,11.128
		c1.357,1.014,3.677,2.029,5.199,2.32"/>
	<path class="st3" d="M-230.591,42.071c-0.028,4.666-2.977,11.431-5.302,15.969l7.738,1.503l6.286-0.132l4.522-1.38
		c-2.268-4.543-5.122-11.296-5.094-15.951l-1.353-5.056l-5.667-0.007L-230.591,42.071z"/>
	<path class="st1" d="M-226.683,24.813c-2.999,0-6.025-0.959-6.025-3.102c0-2.142,3.026-3.101,6.025-3.101
		c2.999,0,6.025,0.959,6.025,3.101C-220.657,23.854-223.683,24.813-226.683,24.813z"/>
	<path class="st2" d="M-226.683,24.813c-2.999,0-6.025-0.959-6.025-3.102c0-2.142,3.026-3.101,6.025-3.101
		c2.999,0,6.025,0.959,6.025,3.101C-220.657,23.854-223.683,24.813-226.683,24.813z"/>
	<path class="st4" d="M-226.683,22.404c-1.267,0-2.545-0.214-2.545-0.693c0-0.478,1.278-0.692,2.545-0.692
		c1.267,0,2.546,0.214,2.546,0.692C-224.137,22.19-225.415,22.404-226.683,22.404z"/>
	<path class="st5" d="M-218.973,55.936c1.565-0.65,3.844-2.43,2.413-5.518l-3.616,1.662L-218.973,55.936z"/>
	<path class="st2" d="M-225.087,36.256c1.825,0.639,5.474,1.996,5.474,1.996c-0.031,5.205,4.187,10.488,4.664,11.14
		c-1.369,1.011-3.701,2.02-5.227,2.307"/>
	<path class="st5" d="M-234.212,55.918c-1.558-0.654-3.815-2.439-2.346-5.523l3.58,1.671L-234.212,55.918z"/>
	<path class="st2" d="M-227.969,36.285c-1.861,0.647-5.406,1.951-5.406,1.951c-0.031,5.205-4.314,10.478-4.799,11.128
		c1.357,1.014,3.677,2.029,5.199,2.32"/>
	<path class="st2" d="M-217.348,58.032c-1.94-3.886-4.309-9.389-4.936-13.813"/>
	<path class="st2" d="M-230.734,43.929c-0.62,4.48-3.128,10.145-5.159,14.11"/>
	<path class="st2" d="M-216.561,50.418c1.227,2.647-0.272,4.332-1.711,5.169"/>
	<path class="st2" d="M-236.558,50.394c-1.289,2.706,0.291,4.412,1.749,5.232"/>
	<circle class="st5" cx="-226.48" cy="33.322" r="4.395"/>
	<circle class="st2" cx="-226.48" cy="33.322" r="4.395"/>
	<path class="st2" d="M-219.586,38.492c-0.842,4.071-3.61,7.058-6.895,7.058c-3.311,0-6.097-3.034-6.914-7.154"/>
</g>
<circle class="st6" cx="-226.478" cy="37.747" r="22.462"/>
<g>
	<circle class="st0" cx="20.772" cy="20.935" r="20.222"/>
	<circle class="st6" cx="20.772" cy="20.935" r="20.222"/>
	<g>
		<g>
			<path class="st7" d="M35.037,14.341c0.928,2.005,1.446,4.239,1.446,6.594c0,2.747-0.705,5.329-1.944,7.576"/>
			<g>
				<polygon class="st8" points="32.175,25.434 31.336,32.563 37.931,29.725 				"/>
			</g>
		</g>
	</g>
	<g>
		<g>
			<path class="st7" d="M10.554,9.036c2.708-2.219,6.156-3.541,9.863-3.559"/>
			<g>
				<polygon class="st8" points="18.888,9.044 25.52,6.294 19.823,1.925 				"/>
			</g>
		</g>
	</g>
	<g>
		<g>
			<path class="st7" d="M18.664,36.505c-6.643-0.891-11.971-5.933-13.289-12.431"/>
			<g>
				<polygon class="st8" points="9.165,24.886 5.192,18.907 1.999,25.337 				"/>
			</g>
		</g>
	</g>
	<g>
		<defs>
			<circle id="SVGID_3_" cx="20.772" cy="20.935" r="19.557"/>
		</defs>
		<clipPath id="SVGID_4_">
			<use xlink:href="#SVGID_3_"  style="overflow:visible;"/>
		</clipPath>
		<path class="st9" d="M31.167,8.577c2.819,0,11.745,13.977,3.289,13.977l-9.367,0c-8.457,0,0.47-13.977,3.289-13.977L31.167,8.577z
			"/>
		<path class="st10" d="M28.378,8.573c-0.669,0-2.379-1.885-3.423-4.76h5.076v2.262l1.801-2.283
			c0.707-0.008,2.749-0.016,2.771-0.016c-1.048,2.896-2.764,4.798-3.436,4.798"/>
		<path class="st11" d="M27.358,22.794c-2.297,0-3.089-0.698-3.47-1.682c-1.395-3.607,2.393-10.379,4.891-12.651
			c0.284-0.259,0.56-0.302,0.818-0.017C29.856,8.727,30,8.8,29.715,9.058c-2.42,2.202-4.965,8.844-3.918,11.551
			c0.33,0.853,0.487,1.268,1.715,1.268c0.384,0,0.696,0.312,0.696,0.696S27.742,22.794,27.358,22.794z"/>
		<path class="st12" d="M31.167,8.577c2.819,0,11.745,13.977,3.289,13.977l-9.367,0c-8.457,0,0.47-13.977,3.289-13.977L31.167,8.577
			z"/>
		<path class="st12" d="M28.378,8.573c-0.669,0-2.379-1.885-3.423-4.76h5.076v2.262l1.801-2.283
			c0.707-0.008,2.749-0.016,2.771-0.016c-1.048,2.896-2.764,4.798-3.436,4.798"/>
		<path class="st13" d="M11.778,6.42l-0.051-0.049l-0.58-0.027l-0.009,0.08c-3.315,0.191-5.944,2.841-5.944,6.091
			c0,4.014,3.763,4.999,3.763,6.868c0,1.591,0,2.26,0,2.26h0.63l0.344,0.423l3.785-0.053l-0.006-0.37h0.328c0,0,0-0.669,0-2.26
			c0-1.869,3.763-2.853,3.763-6.868C17.801,9.239,15.13,6.573,11.778,6.42z"/>
		<path class="st12" d="M11.518,6.406l0-0.001c-0.007,0-0.014,0-0.021,0c-0.007,0-0.014,0-0.021,0l0,0.001
			c-3.474,0.022-6.283,2.748-6.283,6.11c0,4.014,3.763,4.999,3.763,6.868c0,1.591,0,2.26,0,2.26h1.788h0.028h1.448h0.028h1.788
			c0,0,0-0.669,0-2.26c0-1.869,3.763-2.853,3.763-6.868C17.801,9.154,14.991,6.427,11.518,6.406z"/>
		<polyline class="st14" points="10.773,21.643 12.221,21.643 12.249,21.643 		"/>
		<path class="st12" d="M10.645,21.258c0,0,0-4.392,0-6.438S8.831,9.899,8.42,11.297c-0.388,1.318,0.14,3.266,0.741,3.448
			l4.35-0.003c0.785-0.103,1.832-2.382,1.138-3.389s-2.348,1.439-2.348,3.39c0,1.137,0,6.514,0,6.514"/>
		<rect x="9.24" y="22.053" class="st15" width="4.848" height="2.322"/>
		<polyline class="st12" points="14.026,21.642 14.026,24.613 8.955,24.613 8.955,21.643 		"/>
		<line class="st12" x1="10.608" y1="26.109" x2="12.326" y2="26.109"/>
		<line class="st16" x1="2.961" y1="8.291" x2="0.322" y2="6.392"/>
		<line class="st16" x1="4.76" y1="5.928" x2="2.752" y2="3.411"/>
		<line class="st16" x1="7.553" y1="4.518" x2="6.507" y2="1.502"/>
		<path class="st17" d="M-0.72,1.99"/>
		<circle class="st18" cx="20.772" cy="20.935" r="19.557"/>
		<path class="st19" d="M33.193,42.719l-2.597-10.021c-0.132-0.561-0.627-0.953-1.204-0.953l-0.312,0.18l-0.259-0.183h-4.839
			l0.183,0.332l-0.452-0.329c-0.576,0-0.985-0.193-1.118,0.368l-1.269,5.364l-1.302-4.779c-0.133-0.561-0.682-0.953-1.259-0.953
			l-0.363,0.205l-0.175-0.1l-4.818-0.108l-0.054,0.003H13.14c-0.577,0-1.039-0.193-1.172,0.368l-2.51,10.606
			c-0.158,0.664,0.255,1.332,0.919,1.49c0.321,0.077,0.654,0.022,0.935-0.151c0.281-0.174,0.478-0.447,0.554-0.768l1.1-4.648v17.434
			h0.69v0h1.095v0h1.238h0.315h0.966v0h1.096v0h0.69V44.583l2.403-0.292l2.133,0.219v8.231l0.029,0.063l-0.029-0.029v3.3h0.69v0
			h1.095v0h1.236h0.318h0.967v0h1.095v0h0.69V38.642l1.019,4.304c-0.012,0.247,0.027,0.493,0.16,0.708
			c0.174,0.282,0.446,0.478,0.768,0.555c0.095,0.023,0.192,0.034,0.287,0.034c0.014,0,0.028-0.005,0.042-0.006
			c0.104,0.003,0.208-0.003,0.313-0.028C32.937,44.052,33.35,43.384,33.193,42.719z"/>
		<path class="st19" d="M15.671,30.378c1.276,0,2.311-1.035,2.311-2.311c0-1.276-1.122-1.78-2.399-1.78
			c-1.276,0-2.223,0.504-2.223,1.78C13.36,29.343,14.394,30.378,15.671,30.378z"/>
		<path class="st19" d="M26.343,30.378c1.276,0,2.311-1.035,2.311-2.311c0-1.276-1.018-1.531-2.294-1.531
			c-1.276,0-2.328,0.255-2.328,1.531C24.032,29.343,25.067,30.378,26.343,30.378z"/>
		<path class="st19" d="M21.015,28.002c1.276,0,2.311-1.035,2.311-2.311s-1.078-1.4-2.354-1.4c-1.276,0-2.268,0.124-2.268,1.4
			C18.704,26.967,19.738,28.002,21.015,28.002z"/>
		<circle class="st12" cx="15.671" cy="28.695" r="2.311"/>
		<circle class="st12" cx="26.343" cy="28.695" r="2.311"/>
		<path class="st12" d="M15.722,46.067v10.817h1.281v0h1.096v0h0.69V39.45l1.005,4.246c-0.057,0.605,0.334,1.177,0.942,1.321
			c0.114,0.027,0.226,0.032,0.337,0.028c0.101,0.002,0.203-0.004,0.306-0.028c0.608-0.144,0.999-0.716,0.942-1.321l1.005-4.245
			v17.433h0.69v0h1.095v0h1.553"/>
		<path class="st12" d="M26.346,46.067v10.817h1.284v0h1.095v0h0.69V39.45l1.019,4.304c-0.012,0.247,0.027,0.493,0.16,0.708
			c0.174,0.281,0.446,0.478,0.768,0.555c0.095,0.023,0.192,0.034,0.287,0.034c0.014,0,0.028-0.005,0.042-0.006
			c0.104,0.003,0.208-0.003,0.313-0.028c0.664-0.157,1.076-0.825,0.919-1.49l-2.51-10.606c-0.132-0.561-0.627-0.953-1.204-0.953
			h-0.571v-0.003h-4.839v0.003h-0.269c-0.576,0-1.072,0.392-1.205,0.953l-1.269,5.364l-1.269-5.363
			c-0.133-0.561-0.628-0.953-1.205-0.953h-0.571v-0.003h-4.839v0.003h-0.269c-0.577,0-1.072,0.392-1.205,0.953l-2.51,10.606
			c-0.158,0.664,0.255,1.332,0.919,1.49c0.321,0.077,0.654,0.022,0.935-0.151c0.281-0.174,0.478-0.447,0.554-0.768l1.1-4.648v17.434
			h0.69v0h1.095v0h1.553"/>
		
			<ellipse transform="matrix(0.4531 -0.8914 0.8914 0.4531 -11.9691 33.1268)" class="st12" cx="21.015" cy="26.319" rx="2.311" ry="2.311"/>
	</g>
	<g>
		<defs>
			
				<ellipse id="SVGID_5_" transform="matrix(1 -0.0058 0.0058 1 -0.1211 0.1209)" cx="20.772" cy="20.935" rx="19.557" ry="19.557"/>
		</defs>
		<clipPath id="SVGID_6_">
			<use xlink:href="#SVGID_5_"  style="overflow:visible;"/>
		</clipPath>
		<path class="st20" d="M31.095,8.517c2.819-0.016,11.826,13.909,3.37,13.958l-9.367,0.054c-8.457,0.049,0.389-13.98,3.208-13.996
			L31.095,8.517z"/>
		<path class="st21" d="M28.306,8.529c-0.669,0.004-2.39-1.871-3.45-4.74l5.076-0.029l0.013,2.262l1.788-2.294
			c0.707-0.012,2.749-0.032,2.771-0.032c-1.032,2.902-2.736,4.813-3.408,4.817"/>
		<path class="st22" d="M27.594,22.779c-2.297,0.013-3.318-0.704-3.704-1.686c-1.416-3.599,2.333-10.393,4.817-12.679
			c0.283-0.261,0.558-0.305,0.818-0.022c0.26,0.282,0.404,0.354,0.122,0.614c-2.407,2.216-4.914,8.872-3.851,11.574
			c0.335,0.851,0.494,1.265,1.722,1.258c0.384-0.002,0.698,0.307,0.7,0.692S27.978,22.777,27.594,22.779z"/>
		<path class="st23" d="M31.095,8.517c2.819-0.016,11.826,13.909,3.37,13.958l-9.367,0.054c-8.457,0.049,0.389-13.98,3.208-13.996
			L31.095,8.517z"/>
		<path class="st23" d="M28.306,8.529c-0.669,0.004-2.39-1.871-3.45-4.74l5.076-0.029l0.013,2.262l1.788-2.294
			c0.707-0.012,2.749-0.032,2.771-0.032c-1.032,2.902-2.736,4.813-3.408,4.817"/>
		<path class="st24" d="M11.694,6.472l-0.051-0.049L11.062,6.4l-0.009,0.08c-3.313,0.21-5.927,2.875-5.909,6.126
			c0.023,4.014,3.792,4.977,3.803,6.846c0.009,1.591,0.013,2.26,0.013,2.26l0.63-0.004l0.346,0.421l3.784-0.075l-0.009-0.37
			l0.328-0.002c0,0-0.004-0.669-0.013-2.26c-0.011-1.869,3.747-2.875,3.723-6.889C17.733,9.256,15.046,6.606,11.694,6.472z"/>
		<path class="st23" d="M11.434,6.46l0-0.001c-0.007,0-0.014,0.001-0.021,0.001c-0.007,0-0.014,0-0.021,0l0,0.001
			c-3.474,0.042-6.267,2.785-6.248,6.146c0.023,4.014,3.792,4.977,3.803,6.846c0.009,1.591,0.013,2.26,0.013,2.26l1.788-0.01
			l0.028,0l1.448-0.008l0.028,0l1.788-0.01c0,0-0.004-0.669-0.013-2.26c-0.011-1.869,3.747-2.875,3.723-6.889
			C17.732,9.171,14.907,6.461,11.434,6.46z"/>
		<polyline class="st25" points="10.777,21.701 12.225,21.693 12.254,21.693 		"/>
		<path class="st23" d="M10.647,21.316c0,0-0.025-4.392-0.037-6.437s-1.842-4.91-2.246-3.51c-0.38,1.32,0.159,3.265,0.761,3.444
			l4.35-0.028c0.784-0.107,1.818-2.393,1.118-3.395c-0.7-1.002-2.34,1.453-2.329,3.404c0.007,1.137,0.038,6.514,0.038,6.514"/>
		<rect x="9.253" y="22.106" transform="matrix(1 -0.0058 0.0058 1 -0.1348 0.0681)" class="st26" width="4.848" height="2.322"/>
		<polyline class="st23" points="14.031,21.681 14.048,24.652 8.976,24.682 8.959,21.712 		"/>
		<line class="st23" x1="10.638" y1="26.168" x2="12.357" y2="26.158"/>
		<line class="st27" x1="2.888" y1="8.395" x2="0.238" y2="6.511"/>
		<line class="st27" x1="4.674" y1="6.021" x2="2.65" y2="3.515"/>
		<line class="st27" x1="7.458" y1="4.595" x2="6.395" y2="1.585"/>
		<path class="st28" d="M-0.83,2.115"/>
		<ellipse transform="matrix(1 -0.0058 0.0058 1 -0.1211 0.1209)" class="st29" cx="20.772" cy="20.935" rx="19.557" ry="19.557"/>
		<path class="st30" d="M33.319,42.647l-2.655-10.006c-0.135-0.56-0.633-0.949-1.21-0.946l-0.311,0.182l-0.26-0.181l-4.839,0.028
			l0.185,0.331l-0.454-0.327c-0.576,0.003-0.986-0.187-1.116,0.374l-1.238,5.371l-1.33-4.771c-0.136-0.56-0.687-0.949-1.264-0.946
			l-0.362,0.207l-0.175-0.099l-4.819-0.08l-0.054,0.003l-0.215,0.001c-0.577,0.003-1.04-0.187-1.17,0.375L9.585,42.784
			c-0.154,0.665,0.263,1.331,0.928,1.485c0.322,0.075,0.654,0.018,0.935-0.157c0.28-0.176,0.476-0.449,0.55-0.771l1.073-4.654
			l0.101,17.434l0.69-0.004l0,0l1.095-0.006l0,0l1.238-0.007l0.315-0.002l0.966-0.006l0,0l1.096-0.006l0,0l0.69-0.004l-0.067-11.493
			l2.401-0.306l2.134,0.206l0.048,8.231l0.03,0.063l-0.029-0.029l0.019,3.3l0.69-0.004l0,0l1.095-0.006l0,0l1.236-0.007l0.318-0.002
			l0.967-0.006v0l1.095-0.006l0,0l0.69-0.004L29.787,38.59l1.044,4.298c-0.01,0.247,0.03,0.492,0.164,0.707
			c0.175,0.28,0.449,0.476,0.771,0.55c0.095,0.022,0.192,0.033,0.288,0.032c0.014,0,0.028-0.006,0.042-0.006
			c0.104,0.002,0.208-0.004,0.313-0.03C33.071,43.981,33.48,43.31,33.319,42.647z"/>
		<path class="st30" d="M15.726,30.408c1.276-0.007,2.305-1.048,2.298-2.325c-0.007-1.276-1.043-1.475-2.32-1.468
			c-1.276,0.007-2.31,0.218-2.303,1.494C13.408,29.386,14.449,30.415,15.726,30.408z"/>
		<circle class="st23" cx="15.716" cy="28.724" r="2.311"/>
		<circle class="st23" cx="26.388" cy="28.662" r="2.311"/>
		<path class="st23" d="M26.491,46.034l0.063,10.817l1.284-0.007v0l1.095-0.006l0,0l0.69-0.004l-0.101-17.434l1.044,4.298
			c-0.01,0.247,0.03,0.492,0.164,0.707c0.175,0.28,0.449,0.476,0.771,0.55c0.095,0.022,0.192,0.033,0.288,0.032
			c0.014,0,0.028-0.006,0.042-0.006c0.104,0.002,0.208-0.004,0.313-0.03c0.663-0.161,1.071-0.832,0.911-1.495l-2.572-10.591
			c-0.135-0.56-0.633-0.949-1.21-0.946l-0.571,0.003l0-0.003l-4.839,0.028l0,0.003l-0.269,0.002
			c-0.576,0.003-1.069,0.398-1.199,0.96l-1.238,5.371l-1.3-5.356c-0.136-0.56-0.633-0.949-1.21-0.946l-0.571,0.003l0-0.003
			l-4.839,0.028l0,0.003l-0.269,0.002c-0.577,0.003-1.07,0.398-1.199,0.96L9.32,43.593c-0.154,0.665,0.263,1.331,0.928,1.485
			c0.322,0.075,0.654,0.018,0.935-0.157c0.28-0.176,0.476-0.449,0.55-0.771l1.073-4.654l0.101,17.434l0.69-0.004l0,0l1.095-0.006
			l0,0l1.553-0.009"/>
		
			<ellipse transform="matrix(0.4479 -0.8941 0.8941 0.4479 -11.9104 33.3452)" class="st23" cx="21.046" cy="26.317" rx="2.311" ry="2.311"/>
	</g>
</g>
</svg>
