<?xml version="1.0" encoding="utf-8"?>
<!-- Generator: Adobe Illustrator 19.2.1, SVG Export Plug-In . SVG Version: 6.00 Build 0)  -->
<svg width="16" height="16" version="1.1" id="Layer_1" xmlns="http://www.w3.org/2000/svg" xmlns:xlink="http://www.w3.org/1999/xlink" x="0px" y="0px"
	 viewBox="0 0 32 32" style="enable-background:new 0 0 32 32;" xml:space="preserve">
<style type="text/css">
	.st0{fill:#0B55A8;}
</style>
<g>
	<g>
		<path class="st0" d="M32,19.1V1.6c0.1-0.4,0-0.8-0.3-1.2c0,0,0,0,0,0C31.4,0.2,31.1,0,30.7,0H12.9l0,0c-0.2,0-0.3,0-0.5,0.1
			c-0.2,0.1-0.3,0.2-0.4,0.3L0.4,12c0,0-0.1,0.1-0.1,0.1c-0.1,0.1-0.1,0.2-0.2,0.3C0,12.5,0,12.7,0,12.9l0,0v17.9
			C0,31.5,0.6,32,1.2,32h17.9c0.2,0,0.3,0,0.5-0.1c0.1-0.1,0.3-0.2,0.4-0.3L31.6,20c0.1-0.1,0.2-0.3,0.3-0.4
			C31.9,19.5,31.9,19.3,32,19.1C31.9,19.2,32,19.2,32,19.1z M20.3,20.4h7.4l-7.4,7.4V20.4z M18.7,11.6h-4.6V2.5h13.8L18.7,11.6z
			 M11.6,11.6H4.2l7.4-7.4V11.6z M2.5,14.1h9.2v4.6l-9.2,9.2V14.1z M14.1,17.9v-3.8h3.8v3.8H14.1z M20.3,13.5l9.2-9.2v13.6h-9.2
			V13.5z M4.3,29.5l9.1-9.2h4.4v9.2H4.3z"/>
	</g>
</g>
</svg>
