<?xml version="1.0" encoding="utf-8"?>
<!-- Generator: Adobe Illustrator 19.2.1, SVG Export Plug-In . SVG Version: 6.00 Build 0)  -->
<svg width="16" height="16" version="1.1" id="Layer_1" xmlns="http://www.w3.org/2000/svg" xmlns:xlink="http://www.w3.org/1999/xlink" x="0px" y="0px"
	 viewBox="0 0 32 32" style="enable-background:new 0 0 32 32;" xml:space="preserve">
<style type="text/css">
	.st0{fill:#0B55A8;}
</style>
<g>
	<g>
		<path class="st0" d="M20.4,26.6c-1.5,1.6-3.6,2.7-6,2.7c-4.5,0-8.1-3.6-8.1-8.1c0-3,1.6-5.6,4-7c1.6-0.9,0.2-3.3-1.4-2.4
			c-3.2,1.9-5.4,5.4-5.4,9.4c0,6,4.8,10.8,10.8,10.8c3.2,0,6.1-1.4,8-3.6C23.7,27.1,21.7,25.2,20.4,26.6z"/>
		<path class="st0" d="M27.2,20.2c-0.1-0.9-0.8-1.5-1.7-1.6c-0.1,0-8.4-0.1-8.4-0.1l-1-7.9C16,9.6,15,8.9,14,9c-1,0.1-1.8,1-1.7,2.1
			l1.2,9.7c0.1,0.8,0.7,1.4,1.5,1.6c0.1,0,0.2,0,0.4,0.1l8.2,0l1,8c0.2,1,1.1,1.7,2.1,1.6c1-0.1,1.8-1.1,1.7-2.1L27.2,20.2z"/>
		<path class="st0" d="M14.8,7.4c2.1,0,3.7-1.7,3.7-3.7c0-2.1-1.7-3.7-3.7-3.7c-2,0-3.7,1.7-3.7,3.7C11.1,5.8,12.7,7.4,14.8,7.4z"/>
	</g>
</g>
</svg>
