<?xml version="1.0" encoding="utf-8"?>
<!-- Generator: Adobe Illustrator 19.2.1, SVG Export Plug-In . SVG Version: 6.00 Build 0)  -->
<svg width="16" height="16" version="1.1" id="Layer_1" xmlns="http://www.w3.org/2000/svg" xmlns:xlink="http://www.w3.org/1999/xlink" x="0px" y="0px"
	 viewBox="0 0 32 32" style="enable-background:new 0 0 32 32;" xml:space="preserve">
<style type="text/css">
	.st0{fill:#0B55A8;}
</style>
<g>
	<g>
		<path class="st0" d="M30.9,12.1v3.3c0,1.5-0.9,2.7-2,2.7h0h-3.4V9.4h0.9c-0.6-1.5-1.5-2.8-2.6-3.9c-0.1,0-0.2,0.1-0.3,0.1
			c-0.3,0-0.7-0.1-0.9-0.3c-1.9-1.5-4.1-2.3-6.6-2.3s-4.7,0.8-6.6,2.3C9.1,5.5,8.6,5.6,8.2,5.5C7,6.6,6.1,7.9,5.5,9.4h0.9v8.7H3.1h0
			c-1.1,0-2-1.2-2-2.7v-3.3c0-1.5,0.9-2.7,2-2.7h0h0.8c0.7-2,1.8-3.7,3.3-5.1C7,3.8,7.2,3.3,7.6,2.9C10,1,12.9,0,16,0s6,1,8.4,2.9
			c0.4,0.3,0.6,0.9,0.5,1.4c1.5,1.4,2.6,3.2,3.3,5.1h0.8h0C30,9.4,30.9,10.6,30.9,12.1z M16.2,25.9c-3.6-4.8-8.6-6-14.4-6.7v4.1
			c5.9,0.7,9.9,2,12.6,7.4l0.6,1.2h2.6l0.6-1.2c2.6-5.4,6.6-6.7,12.3-7.4v-4.1C24.6,20,19.7,21.2,16.2,25.9z M8.7,13.7
			c-1.1,1.1-0.3,2.8,0.1,4.2c0.4,1.3,1.2,1.3,1.2,1.3c0,0.1,0,0.3,0,0.5c2.2,0.8,4.3,2,6.2,3.9c1.8-1.8,3.8-3,5.9-3.8
			c0-0.3,0-0.5,0-0.6c0,0,0.8,0.1,1.2-1.3c0.4-1.3,1.3-3.1,0.1-4.2c-0.5-0.5-0.6-0.2-0.7-0.2c0.2-0.3,0.8-2.3,0.4-4.1
			c-0.2-1.1-1-2.6-2.6-2.7c-1.3-0.1-1.7-1.7-7.9-0.4C10.6,6.7,9.3,8,9,9.3c-0.4,1.8,0.3,3.8,0.4,4.1C9.4,13.5,9.1,13.2,8.7,13.7z"/>
	</g>
</g>
</svg>
