<?xml version="1.0" encoding="utf-8"?>
<!-- Generator: Adobe Illustrator 19.2.1, SVG Export Plug-In . SVG Version: 6.00 Build 0)  -->
<svg width="16" height="16" version="1.1" id="Layer_1" xmlns="http://www.w3.org/2000/svg" xmlns:xlink="http://www.w3.org/1999/xlink" x="0px" y="0px"
	 viewBox="0 0 32 32" style="enable-background:new 0 0 32 32;" xml:space="preserve">
<style type="text/css">
	.st0{fill:none;stroke:#3AB1CE;stroke-miterlimit:10;}
	.st1{fill:#0B55A8;stroke:#0B55A8;stroke-miterlimit:10;}
	.st2{fill:#0B55A8;}
</style>
<g>
	<path class="st0" d="M13.7,5.9"/>
</g>
<g>
	<path class="st0" d="M8.6,0.9"/>
</g>
<g>
	<path class="st1" d="M18.8,0.5h-11c-1.3,0-2.3,1.1-2.3,2.3v22.6c0,1.2,1,2.2,2.2,2.2h7.5c-0.2,0-0.4-0.4-0.5-1.3H7.8
		c-0.6,0-1.1-0.5-1.1-1.1V2.9c0-0.6,0.5-1.1,1.1-1.1h11.3v3.6c0,1.3,1.1,2.4,2.4,2.4h3.6v10.1c0.4,0.2,0.9,0.5,1.3,0.8l0-10.6
		L18.8,0.5z"/>
</g>
<g>
	<polygon class="st2" points="24.6,21.5 20.5,25.6 18.5,23.6 17.2,24.8 20.5,28.1 20.5,28 20.5,28 25.8,22.7 	"/>
	<path class="st2" d="M21.8,17c-0.8,0-1.7,0.1-2.4,0.4c-0.8,0.3-1.6,0.7-2.2,1.2c-1,0.8-1.8,1.8-2.3,3c-0.2,0.4-0.3,0.8-0.4,1.3
		c-0.1,0.5-0.2,1.1-0.2,1.6c0,4.1,3.4,7.5,7.5,7.5s7.5-3.4,7.5-7.5C29.3,20.3,26,17,21.8,17z M21.8,30.1c-3.1,0-5.7-2.5-5.7-5.7
		c0-3.1,2.5-5.7,5.7-5.7c3.1,0,5.7,2.5,5.7,5.7C27.5,27.6,24.9,30.1,21.8,30.1z"/>
</g>
</svg>
