<?xml version="1.0" encoding="utf-8"?>
<!-- Generator: Adobe Illustrator 19.2.1, SVG Export Plug-In . SVG Version: 6.00 Build 0)  -->
<svg width="16" height="16" version="1.1" id="Layer_1" xmlns="http://www.w3.org/2000/svg" xmlns:xlink="http://www.w3.org/1999/xlink" x="0px" y="0px"
	 viewBox="0 0 32 32" style="enable-background:new 0 0 32 32;" xml:space="preserve">
<style type="text/css">
	.st0{fill:#0B55A8;}
</style>
<g>
	<g>
		<path class="st0" d="M32,18.9v3.7c0,1.6-1,3-2.1,3h0h-3.6v-9.6h1c-0.6-1.7-1.6-3.1-2.8-4.4c-0.1,0-0.2,0.1-0.4,0.1
			c-0.3,0-0.7-0.1-1-0.3c-2-1.7-4.4-2.5-7-2.5s-5,0.9-7,2.5c-0.4,0.3-0.9,0.4-1.4,0.3c-1.2,1.2-2.2,2.7-2.8,4.3h1v9.6H2.1h0
			c-1.2,0-2.1-1.3-2.1-3v-3.7c0-1.6,1-3,2.1-3h0h0.8c0.7-2.2,1.9-4.1,3.5-5.7C6.4,9.7,6.5,9.1,7,8.7c2.6-2.1,5.7-3.2,9-3.2
			s6.4,1.1,9,3.2c0.5,0.4,0.6,1,0.6,1.5c1.6,1.6,2.8,3.5,3.5,5.7h0.8h0C31,15.9,32,17.3,32,18.9z"/>
	</g>
</g>
</svg>
