<?xml version="1.0" encoding="utf-8"?>
<!-- Generator: Adobe Illustrator 19.2.1, SVG Export Plug-In . SVG Version: 6.00 Build 0)  -->
<svg width="16" height="16" version="1.1" id="Layer_1" xmlns="http://www.w3.org/2000/svg" xmlns:xlink="http://www.w3.org/1999/xlink" x="0px" y="0px"
	 viewBox="0 0 32 32" style="enable-background:new 0 0 32 32;" xml:space="preserve">
<style type="text/css">
	.st0{fill:#0B55A8;}
</style>
<g>
	<g>
		<path class="st0" d="M10.8,15.8L10.8,15.8l0-10.7h0C11,2.3,13.3,0,16.2,0c2.9,0,5.2,2.3,5.3,5.1h0v10.7c0,2.9-2.4,5.3-5.3,5.3
			C13.2,21.1,10.9,18.7,10.8,15.8z M28.3,11.3h-2.5c-0.4,0-0.7,0.1-1,0.4c-0.2,0.2-0.2,0.5-0.2,0.8v3.2c0,0,0,0.1,0,0.1
			c0,4.6-3.8,8.4-8.4,8.4c-4.6,0-8.4-3.7-8.4-8.4c0,0,0-0.1,0-0.1v-3.2c0-0.4-0.1-0.7-0.3-0.9c-0.3-0.2-0.6-0.3-0.9-0.2H4.1
			c-0.6,0-1,0.5-1,1c0,0.6,0.5,1,1,1h1.6v2.5c0,0,0,0.1,0,0.1c0.1,5.2,4.1,9.5,9.1,10.1v3.1h-0.9c-0.7,0-1.3,0.6-1.3,1.3
			c0,0.7,0.6,1.3,1.3,1.3h4.5c0.7,0,1.3-0.6,1.3-1.3c0-0.7-0.6-1.3-1.3-1.3h-0.9v-3.1c5.1-0.7,9-4.9,9.1-10.1c0,0,0-0.1,0-0.1v-2.5
			h1.6c0.6,0,1-0.5,1-1C29.3,11.8,28.9,11.3,28.3,11.3z"/>
	</g>
</g>
</svg>
