<?xml version="1.0" encoding="utf-8"?>
<!-- Generator: Adobe Illustrator 19.2.1, SVG Export Plug-In . SVG Version: 6.00 Build 0)  -->
<svg width="16" height="16" version="1.1" id="Layer_1" xmlns="http://www.w3.org/2000/svg" xmlns:xlink="http://www.w3.org/1999/xlink" x="0px" y="0px"
	 viewBox="0 0 32 32" style="enable-background:new 0 0 32 32;" xml:space="preserve">
<style type="text/css">
	.st0{fill:#0B55A8;}
</style>
<g>
	<path class="st0" d="M31.3,9.7C29.8,0.4,28.1,1,28.1,1c-0.5,0.4-0.5,0.7-0.5,0.7C21.4,7.8,13.9,9,13.9,9c-0.3-1.3-0.8-1.1-0.8-1.1
		L7,9.2L5.8,8.5L5.1,9.6L4.4,9.8c-0.5,0.4-0.3,1.3-0.3,1.3C1.8,11.5,1.2,12,1.2,12C0,13,0,14.4,0,14.4c0.1,3.7,2.7,4.9,2.7,4.9
		c0.9,0.1,2.6-0.1,2.6-0.1c0.3,1.2,0.9,1.3,0.9,1.3l2.3-0.4l0.1,0.8c0.5-0.1,0.5-0.4,0.5-0.4L9.1,20l0.4-0.1
		c0.1,1.6,0.8,6.4,3.5,10.4c0,0,0.4,0.5,1.1,0.3c0.7-0.2,1.7-0.9,2.1-1.3c0.4-0.4-0.4-0.8-0.4-0.8s-0.5-5.2-2.5-8.1l-0.2-1.2l2-0.3
		c0.4-0.8,0.2-1.2,0.2-1.2c7.8-2,15.3,1.6,15.3,1.6c0.1,0.6,0.6,0.5,0.6,0.5S32.9,18.9,31.3,9.7z"/>
</g>
</svg>
