<?xml version="1.0" encoding="utf-8"?>
<!-- Generator: Adobe Illustrator 19.2.1, SVG Export Plug-In . SVG Version: 6.00 Build 0)  -->
<svg width="16" height="16" version="1.1" id="Layer_1" xmlns="http://www.w3.org/2000/svg" xmlns:xlink="http://www.w3.org/1999/xlink" x="0px" y="0px"
	 viewBox="0 0 32 32" style="enable-background:new 0 0 32 32;" xml:space="preserve">
<style type="text/css">
	.st0{fill:#0B55A8;}
</style>
<g>
	<g>
		<path class="st0" d="M32,15.1L25.7,1.4c0,0-5.5-1.3-9.7,3.5c-4.2-4.8-9.7-3.5-9.7-3.5L0,15.1l0,0c0,0,0,0,0,0v4.6
			c6.5,0.8,11,2.2,13.9,8.2l0.6,1.3H16h1.4l0.6-1.3c2.9-6.1,7.4-7.5,13.9-8.2V15.1C32,15.1,32,15.1,32,15.1L32,15.1z M2.8,15.5
			l5-12.1c3.9-0.2,6.3,2.1,7.5,3.7v14.7C12,17.8,7.7,16.3,2.8,15.5z M16.7,21.7V7.1c1.2-1.5,3.6-3.8,7.5-3.7l5,12.1
			C24.3,16.3,20,17.8,16.7,21.7z"/>
	</g>
</g>
</svg>
