<?xml version="1.0" encoding="utf-8"?>
<!-- Generator: Adobe Illustrator 19.2.1, SVG Export Plug-In . SVG Version: 6.00 Build 0)  -->
<svg width="16" height="16" version="1.1" id="Layer_1" xmlns="http://www.w3.org/2000/svg" xmlns:xlink="http://www.w3.org/1999/xlink" x="0px" y="0px"
	 viewBox="0 0 32 32" style="enable-background:new 0 0 32 32;" xml:space="preserve">
<style type="text/css">
	.st0{fill:#0B55A8;}
</style>
<g>
	<g>
		<path class="st0" d="M17.9,10.5c0.3,0.2,0.7,0.2,1,0l1.6,3.5c0.2,0.4,0.6,0.7,1,0.7c0,0,0.1,0,0.1,0c0.5,0,0.9-0.4,1-0.8l1.7-6.3
			h3.1c0.6,0,1.2-0.5,1.2-1.2c0-0.6-0.5-1.1-1.2-1.1h-4c-0.5,0-1,0.4-1.1,0.9l-1.1,4.1L20,7.6c-0.2-0.4-0.6-0.7-1-0.7
			C18.5,7,18.1,7.2,18,7.6l-0.6,1.4C17,9.5,17.3,10.2,17.9,10.5z"/>
		<path class="st0" d="M30.6,0H1.4C0.6,0,0,0.6,0,1.4v29.2C0,31.4,0.6,32,1.4,32h29.2c0.8,0,1.4-0.6,1.4-1.4V1.4
			C32,0.6,31.4,0,30.6,0z M4.6,7.7H8V4.3c0-0.6,0.5-1.1,1.1-1.1c0.6,0,1.1,0.5,1.1,1.1v3.4h3.4c0.6,0,1.2,0.5,1.2,1.1
			c0,0.6-0.5,1.2-1.2,1.2h-3.4v3.4c0,0.6-0.5,1.1-1.1,1.1c-0.6,0-1.1-0.5-1.1-1.1V10H4.6c-0.6,0-1.2-0.5-1.2-1.2
			C3.4,8.2,3.9,7.7,4.6,7.7z M26.3,26.3h-6.9c-0.6,0-1.1-0.5-1.1-1.1c0-0.6,0.5-1.1,1.1-1.1h6.9c0.6,0,1.1,0.5,1.1,1.1
			C27.4,25.8,26.9,26.3,26.3,26.3z M26.3,22.4h-6.9c-0.6,0-1.1-0.5-1.1-1.2c0-0.6,0.5-1.1,1.1-1.1h6.9c0.6,0,1.1,0.5,1.1,1.1
			C27.4,21.9,26.9,22.4,26.3,22.4z M29.7,16H16v13.7H2.3V16H16V2.3h13.7V16z"/>
		<path class="st0" d="M5.2,26.9c0.2,0.2,0.5,0.3,0.8,0.3c0.3,0,0.6-0.1,0.8-0.3l2.4-2.4l2.4,2.4c0.2,0.2,0.5,0.3,0.8,0.3
			c0.3,0,0.6-0.1,0.8-0.3c0.5-0.4,0.5-1.2,0-1.6l-2.4-2.4l2.4-2.4c0.5-0.4,0.5-1.2,0-1.6c-0.4-0.5-1.2-0.5-1.6,0l-2.4,2.4l-2.4-2.4
			c-0.4-0.5-1.2-0.5-1.6,0c-0.5,0.4-0.5,1.2,0,1.6l2.4,2.4l-2.4,2.4C4.7,25.7,4.7,26.5,5.2,26.9z"/>
	</g>
</g>
</svg>
