<?xml version="1.0" encoding="utf-8"?>
<!-- Generator: Adobe Illustrator 19.2.1, SVG Export Plug-In . SVG Version: 6.00 Build 0)  -->
<svg width="16" height="16" version="1.1" id="Layer_1" xmlns="http://www.w3.org/2000/svg" xmlns:xlink="http://www.w3.org/1999/xlink" x="0px" y="0px"
	 viewBox="0 0 32 32" style="enable-background:new 0 0 32 32;" xml:space="preserve">
<style type="text/css">
	.st0{fill:#0B55A8;}
</style>
<g>
	<g>
		<rect x="5.4" y="13.3" class="st0" width="5.3" height="5.3"/>
		<rect x="13.2" y="13.3" class="st0" width="5.3" height="5.3"/>
		<rect x="21.4" y="13.3" class="st0" width="5.3" height="5.3"/>
		<rect x="5.4" y="21.3" class="st0" width="5.3" height="5.3"/>
		<rect x="13.2" y="21.3" class="st0" width="5.3" height="5.3"/>
		<path class="st0" d="M27.3,5.4c-0.2,0-0.4,0-0.5,0v-4c0-0.7-0.6-1.3-1.3-1.3c-0.7,0-1.3,0.6-1.3,1.3v4h-2.7v-4
			c0-0.7-0.6-1.3-1.3-1.3c-0.7,0-1.3,0.6-1.3,1.3v4h-5.3v-4c0-0.7-0.6-1.3-1.3-1.3c-0.7,0-1.3,0.6-1.3,1.3v4H8.1v-4
			C8.1,0.6,7.5,0,6.7,0C6,0,5.4,0.6,5.4,1.3v4c-0.2,0-0.4,0-0.5,0H0.1v5.3v0.1v15.9c0,2.9,2.4,5.3,5.3,5.3h21.3
			c2.9,0,5.3-2.4,5.3-5.3V10.7v-0.1V5.4H27.3z M29.4,26.7c0,1.5-1.2,2.7-2.7,2.7H5.4c-1.5,0-2.7-1.2-2.7-2.7V10.7h26.7V26.7z"/>
	</g>
</g>
</svg>
