<?xml version="1.0" encoding="utf-8"?>
<!-- Generator: Adobe Illustrator 19.2.1, SVG Export Plug-In . SVG Version: 6.00 Build 0)  -->
<svg width="16" height="16" version="1.1" id="Layer_1" xmlns="http://www.w3.org/2000/svg" xmlns:xlink="http://www.w3.org/1999/xlink" x="0px" y="0px"
	 viewBox="0 0 32 32" style="enable-background:new 0 0 32 32;" xml:space="preserve">
<style type="text/css">
	.st0{fill:#0B55A8;}
</style>
<g>
	<g>
		<path class="st0" d="M27.7,12.7C27.1,8,23,4.4,18.2,4.4c-2,0-3.8,0.6-5.5,1.8C12.2,6,11.6,5.9,11,5.9c-3.1,0-5.6,2.4-5.7,5.5
			C2.3,12.2,0,14.9,0,18.2c0,3.9,3.1,7,7,7c0.9,0,1.8-0.2,2.6-0.5c2.6,1.8,5.9,2.1,8.9,0.9c0.7,0.6,1.7,1,2.6,1
			c1.1,0,2.1-0.5,2.9-1.2c4.2,0.9,7.9-2.4,7.9-6.4C32,16.1,30.2,13.7,27.7,12.7z M25.4,23.1c-0.4,0-0.9-0.1-1.4-0.3l-0.9-0.3
			l-0.5,0.8c-0.3,0.5-0.8,0.8-1.4,0.8c-0.7,0-1.2-0.5-1.4-0.8l-0.6-0.9L18.3,23c-2.6,1.4-5.5,1-7.8-0.7l-0.6-0.5l-0.7,0.4
			c-0.7,0.4-1.4,0.6-2.2,0.6c-2.5,0-4.6-2.1-4.6-4.6c0-2.1,1.4-3.9,3.4-4.4c0.8,2.1,2.8,3.6,5.2,3.6v-2.4c-1.6,0-2.9-1.1-3.2-2.6
			l0,0l0-0.1c0-0.2-0.1-0.4-0.1-0.6c0-2.3,2.5-4,4.7-3l0.7,0.3l0.6-0.5c1.3-1.1,2.9-1.6,4.5-1.6c3.4,0,6.2,2.3,7,5.5
			c-1.4,0.1-2.7,0.6-3.7,1.4l1.3,2c0.7-0.6,1.7-1,2.7-1c0.3,0,0.6,0,0.8,0.1l0.1,0c1.9,0.4,3.3,2.1,3.3,4.1
			C29.6,21.2,27.7,23.1,25.4,23.1z"/>
	</g>
</g>
</svg>
