<?xml version="1.0" encoding="utf-8"?>
<!-- Generator: Adobe Illustrator 19.2.1, SVG Export Plug-In . SVG Version: 6.00 Build 0)  -->
<svg width="16" height="16" version="1.1" id="Layer_1" xmlns="http://www.w3.org/2000/svg" xmlns:xlink="http://www.w3.org/1999/xlink" x="0px" y="0px"
	 viewBox="0 0 32 32" style="enable-background:new 0 0 32 32;" xml:space="preserve">
<style type="text/css">
	.st0{fill:#0B55A8;}
</style>
<g>
	<g>
		<path class="st0" d="M15.6,32c-6,0-12.5-1.4-13-4.3c0-0.1,0-0.2,0-0.3V4.7c0,0,0,0,0,0c0,0,0,0,0,0c0-3.2,6.7-4.7,13-4.7
			c6.3,0,13,1.5,13,4.7c0,0.1,0,22.7,0,22.7c0,0.1,0,0.2,0,0.2C28.2,30.6,21.7,32,15.6,32z M4.8,27.2c0,0,0,0.1,0,0.1
			c0,0.7,3.9,2.5,10.8,2.5c7,0,10.8-1.8,10.8-2.5c0,0,0,0,0-0.1c0,0,0-22.7,0-22.8c0-0.4-3.4-2.3-10.8-2.3C8.3,2.2,4.9,4,4.8,4.6
			c0,0,0,0,0,0.1c0,0,0,0.1,0,0.1V27.2z"/>
		<g>
			<path class="st0" d="M25,6c-1.4,1.2-5,2-9.3,2c-4.3,0-8-0.8-9.3-2C5.9,6.3,5.7,6.7,5.7,7c0,1.6,4.4,3,9.9,3c5.5,0,9.9-1.3,9.9-3
				C25.6,6.7,25.3,6.3,25,6z"/>
		</g>
		<g>
			<path class="st0" d="M25,13.5c-1.4,1.2-5,2-9.3,2c-4.3,0-8-0.8-9.3-2c-0.4,0.3-0.6,0.7-0.6,1c0,1.6,4.4,3,9.9,3
				c5.5,0,9.9-1.3,9.9-3C25.6,14.1,25.3,13.8,25,13.5z"/>
		</g>
		<g>
			<path class="st0" d="M25,20.8c-1.4,1.2-5,2-9.3,2c-4.3,0-8-0.8-9.3-2c-0.4,0.3-0.6,0.6-0.6,1c0,1.6,4.4,3,9.9,3
				c5.5,0,9.9-1.3,9.9-3C25.6,21.5,25.3,21.1,25,20.8z"/>
		</g>
	</g>
</g>
</svg>
