<?xml version="1.0" encoding="utf-8"?>
<!-- Generator: Adobe Illustrator 19.2.0, SVG Export Plug-In . SVG Version: 6.00 Build 0)  -->
<svg width="16" height="16" version="1.1" id="Layer_1" xmlns="http://www.w3.org/2000/svg" xmlns:xlink="http://www.w3.org/1999/xlink" x="0px" y="0px"
	 viewBox="0 0 32 32" style="enable-background:new 0 0 32 32;" xml:space="preserve">
<style type="text/css">
	.st0{fill-rule:evenodd;clip-rule:evenodd;}
	.st1{fill:#0B55A8;}
</style>
<path class="st0" d="M10,16.6c-0.2,0.2-0.3,0.4-0.3,0.7c0,0.3,0.1,0.5,0.3,0.7l6,5.8l6-5.8c0.4-0.4,0.4-1,0-1.4
	c-0.4-0.4-1-0.4-1.4,0L17,20.2v-19c0-0.5-0.4-1-1-1c-0.5,0-1,0.4-1,1v19.1l-3.6-3.6C11,16.3,10.4,16.3,10,16.6z M29.8,10.1h-8.9v2
	h7.7c0.7,0,1.2,0.5,1.2,1.2v15.3c0,0.7-0.5,1.2-1.2,1.2l-25.3,0c-0.7,0-1.2-0.5-1.2-1.2V13.3c0-0.7,0.5-1.2,1.2-1.2h7.7l0-2H2.2
	c-1.1,0-2,0.9-2,2v17.8c0,1.1,0.9,2,2,2h27.7c1.1,0,2-0.9,2-2V12.1C31.8,11,30.9,10.1,29.8,10.1z"/>
<path class="st1" d="M29.8,32H2.2C1,32,0,31,0,29.8V12.1c0-1.2,1-2.2,2.2-2.2h9.1l0,2.4H3.4c-0.6,0-1,0.5-1,1v15.4c0,0.6,0.5,1,1,1
	l25.3,0c0.6,0,1-0.5,1-1V13.3c0-0.6-0.5-1-1-1h-7.9V9.9h9.1c1.2,0,2.2,1,2.2,2.2v17.8C32,31,31,32,29.8,32z M16,24.1l-6.1-6
	c-0.2-0.2-0.3-0.5-0.3-0.8s0.1-0.6,0.3-0.8l0,0c0.5-0.5,1.2-0.5,1.7,0l3.3,3.3V1.2C14.8,0.5,15.4,0,16,0c0.7,0,1.2,0.5,1.2,1.2v18.6
	l3.2-3.2c0.5-0.5,1.2-0.5,1.7,0c0.5,0.5,0.5,1.2,0,1.7L16,24.1z"/>
</svg>
