<?xml version="1.0" encoding="utf-8"?>
<!-- Generator: Adobe Illustrator 19.2.1, SVG Export Plug-In . SVG Version: 6.00 Build 0)  -->
<svg width="16" height="16" version="1.1" id="Layer_1" xmlns="http://www.w3.org/2000/svg" xmlns:xlink="http://www.w3.org/1999/xlink" x="0px" y="0px"
	 viewBox="0 0 32 32" style="enable-background:new 0 0 32 32;" xml:space="preserve">
<style type="text/css">
	.st0{fill:#0B55A8;}
</style>
<g>
	<g>
		<path class="st0" d="M30.1,18.3c-0.7,1-1.5,1.9-2.5,2.7H4.3c-1-0.8-1.8-1.7-2.5-2.7H30.1z M8.8,23.6c1.3,0.5,2.7,0.9,4.2,1.2
			c0.2,0,0.3,0.1,0.4,0.3c0.1,0.1,0.1,0.3,0,0.5c-0.1,0.3-0.2,0.5-0.4,0.8h4.7c0.4-0.4,0.7-0.9,0.9-1.3c0.1-0.1,0.2-0.2,0.3-0.2
			c1.5-0.2,2.9-0.6,4.2-1.2H8.8z M4.6,3.3C4,3.8,3.4,4.3,2.9,4.9h26.1c-0.5-0.5-1-1.1-1.6-1.6c-0.5-0.4-1.1-0.8-1.7-1.1H6.3
			C5.7,2.6,5.1,2.9,4.6,3.3z M11.5,29c-0.7,1-1.5,1.7-2.2,2.3c2.3-0.6,4-1.5,5.4-2.3H11.5z M1.1,7.6c-0.4,0.9-0.7,1.7-0.9,2.7h31.7
			c-0.2-0.9-0.5-1.8-0.9-2.7H1.1z M0,12.9c0.1,0.9,0.2,1.8,0.5,2.7h30.9c0.3-0.9,0.5-1.8,0.5-2.7H0z"/>
	</g>
</g>
</svg>
