<?xml version="1.0" encoding="utf-8"?>
<!-- Generator: Adobe Illustrator 19.1.0, SVG Export Plug-In . SVG Version: 6.00 Build 0)  -->
<svg width="16" height="16" version="1.1" id="Layer_1" xmlns="http://www.w3.org/2000/svg" xmlns:xlink="http://www.w3.org/1999/xlink" x="0px" y="0px"
	 viewBox="0 0 32 32" style="enable-background:new 0 0 32 32;" xml:space="preserve">
<style type="text/css">
	.st0{fill:#0B55A8;}
</style>
<g>
	<g>
		<path class="st0" d="M27.5,3.9C24.6,1.6,20.6,0,16.1,0c0,0,0,0,0,0C11.6,0,7.6,1.6,4.7,3.9c-2.9,2.3-4.6,5.6-4.6,9
			c0,6.1,5.5,11.4,13,12.5c0.2,0,0.3,0.1,0.4,0.3c0.1,0.1,0.1,0.3,0,0.5c-1,2.6-2.7,4.6-4.1,5.8c5.7-1.6,8.1-4.4,9.2-6.3
			c0.1-0.1,0.2-0.2,0.3-0.2C26.6,24.4,32.1,19,32.1,13C32.1,9.5,30.4,6.3,27.5,3.9z M15.8,17.7c-0.5,2.2-2.6,3.2-5.1,3.1
			c-1.4-0.1-3.6-0.9-4.8-3.4c-3.1-6.7,4.9-12.4,7.1-13.1l0.8,1c-3.2,0.7-9.5,10.4-2.8,8.6C13.5,13.1,16.4,15,15.8,17.7z M19.1,22.4
			l-0.8-1c3.2-0.7,9.6-10.3,2.8-8.5c-2.4,0.7-5.3-1.2-4.7-3.9C16.9,6.9,19,5.9,21.5,6c1.4,0.1,3.6,0.9,4.7,3.4
			C29.3,16.2,21.3,21.8,19.1,22.4z"/>
	</g>
</g>
</svg>
