<?xml version="1.0" encoding="utf-8"?>
<!-- Generator: Adobe Illustrator 19.2.1, SVG Export Plug-In . SVG Version: 6.00 Build 0)  -->
<svg width="16" height="16" version="1.1" xmlns="http://www.w3.org/2000/svg" xmlns:xlink="http://www.w3.org/1999/xlink" x="0px" y="0px"
	 viewBox="0 0 32 32" style="enable-background:new 0 0 32 32;" xml:space="preserve">
<style type="text/css">
	.st0{fill:#0B55A8;}
	.st1{display:none;}
	.st2{display:inline;}
	.st3{fill:#FFFFFF;}
	.st4{fill:#0477A7;}
</style>
<g id="Layer_1">
	<g>
		<path class="st0" d="M20.3,0H6v0l0,0C4.1,0,3.2,1,3.2,2.6v26.6c0,1.8,1,2.8,2.6,2.8h20.5c1.8,0,2.7-1,2.7-2.6V8.8L20.3,0z
			 M27.2,29.1c0,0.6-0.5,1-1,1H6.1c-0.6,0-1-0.5-1-1V2.9c0-0.6,0.5-1,1-1h14.2l0,2.9c0,2.2,1.8,4.1,4.1,4.1h2.8V29.1z"/>
		<g>
			<g>
				<g>
					<path class="st0" d="M23.7,26.6H8.5c-0.4,0-0.8-0.6-0.8-1s0.4-1,0.8-1h15.2c0.4,0,0.8,0.6,0.8,1S24.1,26.6,23.7,26.6z"/>
				</g>
				<g>
					<path class="st0" d="M23.7,22H8.5c-0.4,0-0.8-0.6-0.8-1s0.4-1,0.8-1h15.2c0.4,0,0.8,0.6,0.8,1S24.1,22,23.7,22z"/>
				</g>
			</g>
		</g>
	</g>
	<g>
		<path class="st0" d="M18.6,16h-2.4l-1-2.5h-4.4L9.9,16H7.6l4.3-11h2.3L18.6,16z M14.5,11.7L13,7.6l-1.5,4.1H14.5z"/>
	</g>
</g>
<g id="Layer_3">
</g>
<g id="Layer_4" class="st1">
	<g class="st2">
		<path class="st3" d="M-365.2,2.5h-2.6c-2.3,0-4.6-2.1-4.6-4.3v-8.3l13,12.7L-365.2,2.5z"/>
		<path class="st4" d="M-371.4-7.8l6.3,6.1l3.5,3.4l-3.5,0h-2.6c-1.7,0-3.7-1.6-3.7-3.3v-2.7V-7.8 M-373.3-12.3v4.4v3.4v2.7
			c0,2.7,2.7,5.2,5.5,5.2h2.6l3.4,0l4.7,0.1l-3.4-3.3l-3.5-3.4l-6.3-6.1L-373.3-12.3L-373.3-12.3z"/>
	</g>
</g>
<g id="Layer_5">
</g>
<g id="Layer_6">
</g>
<g id="Layer_2">
</g>
<g id="Layer_7">
</g>
<g id="Layer_8">
</g>
</svg>
