<?xml version="1.0" encoding="utf-8"?>
<!-- Generator: Adobe Illustrator 19.2.1, SVG Export Plug-In . SVG Version: 6.00 Build 0)  -->
<svg width="16" height="16" version="1.1" id="Layer_1" xmlns="http://www.w3.org/2000/svg" xmlns:xlink="http://www.w3.org/1999/xlink" x="0px" y="0px"
	 viewBox="0 0 32 32" style="enable-background:new 0 0 32 32;" xml:space="preserve">
<style type="text/css">
	.st0{fill:#0B55A8;}
</style>
<g>
	<g>
		<path class="st0" d="M1.2,4.9V2.5C1.2,1.1,2.3,0,3.7,0h19.7c1.4,0,2.5,1.1,2.5,2.5v2.5c0,1.4-1.1,2.5-2.5,2.5H8.6l-4.9,4.9V7.4
			C2.3,7.4,1.2,6.3,1.2,4.9z M28.3,9.8H11.1c-1.4,0-2.5,1.1-2.5,2.5v2.5c0,1.4,1.1,2.5,2.5,2.5h12.3l4.9,4.9v-4.9
			c1.4,0,2.5-1.1,2.5-2.5v-2.5C30.8,11,29.7,9.8,28.3,9.8z M16,19.7H3.7c-1.4,0-2.5,1.1-2.5,2.5v2.5c0,1.4,1.1,2.5,2.5,2.5V32
			l4.9-4.9H16c1.4,0,2.5-1.1,2.5-2.5v-2.5C18.5,20.8,17.4,19.7,16,19.7z"/>
	</g>
</g>
</svg>
