<?xml version="1.0" encoding="utf-8"?>
<!-- Generator: Adobe Illustrator 19.2.1, SVG Export Plug-In . SVG Version: 6.00 Build 0)  -->
<svg width="16" height="16" version="1.1" id="Layer_1" xmlns="http://www.w3.org/2000/svg" xmlns:xlink="http://www.w3.org/1999/xlink" x="0px" y="0px"
	 viewBox="0 0 32 32" style="enable-background:new 0 0 32 32;" xml:space="preserve">
<style type="text/css">
	.st0{fill:#0B55A8;}
</style>
<path class="st0" d="M30.1,1.8c-1.9-2-4.9-2.4-6.3-1l-20,20c0,0,0,0,0,0.1c-0.1,0.1-0.1,0.2-0.2,0.3l-3.5,9.6
	c-0.1,0.3,0,0.7,0.2,0.9C0.4,31.9,0.7,32,0.9,32c0.1,0,0.2,0,0.3-0.1l9.5-3.5c0.1,0,0.2-0.1,0.3-0.2c0,0,0,0,0.1,0l20-20
	C31.7,7.5,32,6.8,32,5.8C32,4.5,31.3,3,30.1,1.8z M4.8,28.7c-0.2-0.3-0.4-0.6-0.7-0.9c-0.3-0.3-0.6-0.5-0.9-0.7l1.5-4l4.1,4.1
	L4.8,28.7z M13.3,17.7l-1.7-1.7L18.7,9l1.7,1.7L13.3,17.7z M25.2,11.1l-4.4-4.4L22.6,5L27,9.3L25.2,11.1z"/>
</svg>
