<?xml version="1.0" encoding="utf-8"?>
<!-- Generator: Adobe Illustrator 19.2.1, SVG Export Plug-In . SVG Version: 6.00 Build 0)  -->
<svg width="16" height="16" version="1.1" id="Layer_1" xmlns="http://www.w3.org/2000/svg" xmlns:xlink="http://www.w3.org/1999/xlink" x="0px" y="0px"
	 viewBox="0 0 32 32" style="enable-background:new 0 0 32 32;" xml:space="preserve">
<style type="text/css">
	.st0{fill:#0B55A8;}
</style>
<g>
	<path class="st0" d="M16.1,14.9v5.8h6.5c0,1.9-0.6,3.2-1.7,4.1c-1.1,0.8-2.4,1.3-3.9,1.3c-2.2,0-4-0.9-5.2-2.5
		c-1.2-1.7-1.8-4.1-1.8-7.3c0-3.3,0.6-5.9,1.7-7.6c1.1-1.8,2.8-2.7,5-2.7c2.8,0,4.6,1.4,5.5,4h8c-0.6-2.9-2-5.2-4.1-7
		C23.6,1,20.5,0,16.6,0C12,0,8.4,1.5,5.7,4.5c-2.7,3-4,7-4,11.9c0,4.6,1.3,8.3,3.8,11.2C8,30.5,11.5,32,16,32c3.4,0,6.2-1.1,8.5-3.2
		v2.8h5.8v-0.1v-13v-3.6H16.1z"/>
</g>
</svg>
