<?xml version="1.0" encoding="utf-8"?>
<!-- Generator: Adobe Illustrator 19.2.1, SVG Export Plug-In . SVG Version: 6.00 Build 0)  -->
<svg width="16" height="16" version="1.1" id="Layer_1" xmlns="http://www.w3.org/2000/svg" xmlns:xlink="http://www.w3.org/1999/xlink" x="0px" y="0px"
	 viewBox="0 0 32 32" style="enable-background:new 0 0 32 32;" xml:space="preserve">
<style type="text/css">
	.st0{fill:#1057A7;}
</style>
<path class="st0" d="M32,32l-5.9-8.1c4-4.8,4.8-10.8,1.6-14C25.2,7.3,21,7.2,17,9.2l-1.3-1.6c0.7-2.3,0.3-4.6-1.1-6.1
	C12-1.1,7-0.2,3.4,3.4C-0.2,7-1.1,12,1.5,14.6c1.5,1.5,3.7,1.8,6.1,1.1L9.2,17c-1.9,4-1.8,8.2,0.6,10.6c3.2,3.2,9.2,2.4,14-1.6
	L32,32z"/>
</svg>
