<?xml version="1.0" encoding="utf-8"?>
<!-- Generator: Adobe Illustrator 19.2.1, SVG Export Plug-In . SVG Version: 6.00 Build 0)  -->
<svg width="16" height="16" version="1.1" id="Layer_1" xmlns="http://www.w3.org/2000/svg" xmlns:xlink="http://www.w3.org/1999/xlink" x="0px" y="0px"
	 viewBox="0 0 32 32" style="enable-background:new 0 0 32 32;" xml:space="preserve">
<style type="text/css">
	.st0{fill:#0B55A8;}
</style>
<g>
	<g>
		<path class="st0" d="M32,17.1c0-0.1,0-0.1,0-0.2c0,0,0-0.1,0-0.1c0,0,0,0,0,0c0,0,0,0,0,0C31.9,15.4,31.3,8.2,29,6
			c-2.2-2.2-5.4-0.4-6.7,0.9c-0.4,0.4-0.4,1,0,1.4c0.4,0.4,1,0.4,1.4,0c0,0,2.5-2.4,3.9-0.9c1.3,1.3,2.1,6.2,2.3,9.2
			c-3.5,0.1-6.8,0.3-9.9,0.9c-1.4,0.3-2.4,0.9-4,0.9c-1.6,0-2.7-0.6-4-0.9c-3.2-0.6-6.4-0.8-9.9-0.9c0.2-3.1,1-7.9,2.3-9.2
			c1.4-1.4,3.9,0.9,3.9,0.9c0.4,0.4,1,0.4,1.4,0c0.4-0.4,0.4-1,0-1.4C8.4,5.6,5.2,3.7,3,6C0.7,8.2,0.1,15.4,0,16.8c0,0,0,0,0,0
			c0,0,0,0,0,0c0,0,0,0.1,0,0.1C0,17,0,17,0,17.1c0,0.4-0.1,0.9,0.1,1.3c0.1,0.3,0.8,0.7,1,1.2c0.8,1.8,0.9,3.9,2.1,4.9
			c1.7,1.6,7,2.3,9.2,0.6c0.5-0.4,1.3-1.6,1.7-2.3c0.5-0.9,0.6-2.1,1.3-2.3c0.3-0.1,0.5-0.1,0.7-0.1s0.5,0.1,0.7,0.1
			c0.8,0.3,0.9,1.4,1.3,2.3c0.3,0.7,1.2,1.9,1.7,2.3c2.1,1.7,7.4,1,9.2-0.6c1.1-1.1,1.2-3.1,2.1-4.9c0.2-0.5,0.8-0.8,1-1.2
			C32.1,18,32,17.5,32,17.1z M12.2,21.6c-0.1,0.2-0.1,0.4-0.2,0.6c-0.3,0.6-0.9,1.4-1.1,1.5c-0.5,0.4-1.4,0.6-2.5,0.6
			c-1.5,0-3.1-0.4-3.7-1c-0.4-0.4-0.6-1.1-0.8-1.9c-0.2-0.6-0.3-1.2-0.6-1.8c-0.3-0.6,0.3-1.3,0.9-1.2c2.4,0.1,4.7,0.2,6.8,0.7
			c0.3,0.1,0.7,0.2,1,0.3C12.4,19.5,12.4,21,12.2,21.6z M28.8,19.7c-0.3,0.6-0.5,1.2-0.6,1.8c-0.2,0.8-0.4,1.5-0.8,1.9
			c-0.6,0.6-2.2,1-3.7,1c-1.1,0-2-0.2-2.5-0.6c-0.2-0.2-0.8-1-1.1-1.5c-0.1-0.2-0.2-0.4-0.2-0.6c-0.2-0.6-0.2-2,0.3-2.2
			c0.3-0.1,0.7-0.2,1-0.3c2.1-0.4,4.4-0.6,6.8-0.7C28.4,18.4,29.1,19,28.8,19.7z"/>
	</g>
</g>
</svg>
