<?xml version="1.0" encoding="utf-8"?>
<!-- Generator: Adobe Illustrator 19.2.1, SVG Export Plug-In . SVG Version: 6.00 Build 0)  -->
<svg width="16" height="16" version="1.1" id="Layer_1" xmlns="http://www.w3.org/2000/svg" xmlns:xlink="http://www.w3.org/1999/xlink" x="0px" y="0px"
	 viewBox="0 0 32 32" style="enable-background:new 0 0 32 32;" xml:space="preserve">
<style type="text/css">
	.st0{fill:#0B55A8;}
</style>
<g>
	<g>
		<path class="st0" d="M20.1,10.1c-1.4,0-2.6,1.2-2.6,2.6s1.2,2.6,2.6,2.6c1.4,0,2.6-1.2,2.6-2.6S21.6,10.1,20.1,10.1z"/>
		<path class="st0" d="M9,7.1c-0.6,0.3-0.8,1-0.5,1.6c0.3,0.6,1,0.8,1.6,0.5c0.6-0.3,0.8-1,0.5-1.6C10.3,7,9.6,6.8,9,7.1z"/>
		<path class="st0" d="M30.4,13.4c0,0,0.1-3.7-2.1-5.8c-2.2-2.1-1-4.5-2.9-5.5c0,0,0.3,0.8,0.1,1.4c0,0-2.6-3.2-9-3.5
			C9.9-0.2,7.2,1.8,5.7,4.2C4.1,6.5,3.2,11.3,3.3,12c0.1,0.7,0.5,1.5,0.5,1.5s-0.6,1.7-1.8,3c-1.2,1.3-0.9,2.2-0.1,2.5
			c0.8,0.3,1.3,0.4,0.9,1.4c-0.3,1,0.1,1.1,0.4,1.3c0.3,0.3-0.2,1.2,0.1,1.6c0.3,0.5,1.2,0.9,0.5,2.1c-0.7,1.2,0.5,2.7,2.9,2.7
			c2.4-0.1,3.8,0,3.8,0s1.7,2.1,1.8,4h12.1c0,0-1.1-2.4-0.3-5.1c0.7-2.7,6.7-7.4,5.3-14.6C29.4,12.3,30.1,12.6,30.4,13.4z M11.3,10
			c-0.2,0.2-0.4,0.3-0.6,0.4c-0.2,0.1-0.4,0.2-0.7,0.2l-0.5,1.5l-1.3-0.2l0-1.6c-0.4-0.2-0.8-0.5-1-1l-1.6,0L5.6,8.1l1.5-0.5
			c0.1-0.5,0.3-0.9,0.6-1.2L7.2,5l1.1-0.6l0.9,1.3c0.5-0.1,1,0,1.4,0.2l1.3-0.9l0.9,0.9l-0.9,1.3C12,7.5,12.1,8,12,8.5l1.3,0.9
			l-0.6,1.1L11.3,10z M27.2,14.1L27.2,14.1l-1.5,0.4c-0.1,0.2-0.1,0.4-0.2,0.6c0,0,0,0.1,0,0.1c-0.1,0.1-0.1,0.3-0.2,0.4l0.8,1.4
			l-1.8,1.8l-1.4-0.8c-0.2,0.1-0.3,0.2-0.4,0.2c0,0,0,0-0.1,0c-0.2,0.1-0.4,0.1-0.6,0.2l-0.4,1.5h-2.6v0l-0.4-1.5
			c-0.2-0.1-0.4-0.1-0.6-0.2c0,0-0.1,0-0.1,0c-0.1-0.1-0.3-0.2-0.4-0.2L16,18.7l-0.9-0.9l-0.9-0.9h0l0.8-1.4
			c-0.1-0.2-0.2-0.3-0.2-0.4c0,0,0-0.1,0-0.1c-0.1-0.2-0.1-0.4-0.2-0.6L13,14.1v0v-2.6l1.6-0.4c0.1-0.2,0.1-0.4,0.2-0.6
			c0,0,0,0,0-0.1c0.1-0.1,0.2-0.3,0.2-0.4l-0.8-1.4L16,6.8l1.4,0.8c0.1-0.1,0.3-0.2,0.4-0.2c0,0,0,0,0.1,0c0.2-0.1,0.4-0.1,0.6-0.2
			l0.4-1.5h2.6v0l0.4,1.5c0.2,0.1,0.4,0.1,0.6,0.2c0,0,0.1,0,0.1,0c0.2,0.1,0.3,0.1,0.4,0.2l1.4-0.8l1.8,1.8L25.2,10
			c0.1,0.1,0.2,0.3,0.2,0.4c0,0,0,0,0,0.1c0.1,0.2,0.1,0.4,0.2,0.6l1.5,0.4V14.1z"/>
	</g>
</g>
</svg>
