<?xml version="1.0" encoding="utf-8"?>
<!-- Generator: Adobe Illustrator 19.2.1, SVG Export Plug-In . SVG Version: 6.00 Build 0)  -->
<svg width="16" height="16" version="1.1" id="Layer_1" xmlns="http://www.w3.org/2000/svg" xmlns:xlink="http://www.w3.org/1999/xlink" x="0px" y="0px"
	 viewBox="0 0 32 32" style="enable-background:new 0 0 32 32;" xml:space="preserve">
<style type="text/css">
	.st0{fill:#0B55A8;}
</style>
<g>
	<g>
		<path class="st0" d="M28.5,12.2c-0.3-0.9-0.6-1.6-1-2.4c0.6-1,1.3-2,1.9-3.1l-4.1-4.1l-3.1,1.9c-0.8-0.4-1.6-0.7-2.4-1
			c-0.3-1.2-0.6-2.3-0.8-3.5C17,0,15,0,13.1,0l-0.8,3.5c-0.9,0.3-1.6,0.6-2.4,1L6.8,2.6L2.6,6.8l1.9,3c-0.4,0.8-0.7,1.6-1,2.4
			c-1.2,0.3-2.3,0.6-3.5,0.8C0,15,0,17,0,18.9l3.5,0.8c0.3,0.9,0.6,1.6,1,2.4c-0.6,1-1.2,2-1.9,3C4,26.6,5.4,28,6.8,29.4
			c1-0.6,2-1.3,3.1-1.9c0.8,0.4,1.6,0.7,2.5,1c0.3,1.2,0.6,2.3,0.8,3.5c1.9,0,3.9,0,5.8,0l0.8-3.5c0.9-0.3,1.6-0.6,2.4-1l3,1.9
			l4.1-4.1c-0.6-1-1.3-2-1.9-3.1c0.4-0.8,0.7-1.6,1-2.4c1.2-0.3,2.3-0.6,3.5-0.8c0-1.9,0-3.9,0-5.8L28.5,12.2z M16,21.9
			c-5.4,0-7.9-7-3.8-10.4c4.2-3.5,10.6,0.3,9.6,5.6C21.3,19.8,18.8,21.9,16,21.9z"/>
	</g>
</g>
</svg>
