<?xml version="1.0" encoding="utf-8"?>
<!-- Generator: Adobe Illustrator 19.2.1, SVG Export Plug-In . SVG Version: 6.00 Build 0)  -->
<svg width="16" height="16" version="1.1" id="Layer_1" xmlns="http://www.w3.org/2000/svg" xmlns:xlink="http://www.w3.org/1999/xlink" x="0px" y="0px"
	 viewBox="0 0 32 32" style="enable-background:new 0 0 32 32;" xml:space="preserve">
<style type="text/css">
	.Arched_x0020_Green{fill:url(#SVGID_1_);stroke:#FFFFFF;stroke-width:0.25;stroke-miterlimit:1;}
	.st0{fill:#1057A7;}
</style>
<linearGradient id="SVGID_1_" gradientUnits="userSpaceOnUse" x1="-281.6401" y1="436.9448" x2="-280.933" y2="436.2377">
	<stop  offset="0" style="stop-color:#24B45F"/>
	<stop  offset="0.9831" style="stop-color:#183518"/>
</linearGradient>
<g>
	<path class="st0" d="M1.7,19c0.8,0.3,1.3,0.4,0.9,1.4c-0.4,1,0,1,0.4,1.3c0.3,0.3-0.2,1.2,0.1,1.6c0.3,0.5,1.2,0.9,0.5,2.1
		c-0.7,1.2,0.5,2.7,2.9,2.7c2.4-0.1,3.8,0,3.8,0s1.7,2.1,1.8,3.9h12.1c0,0-1.1-2.4-0.3-5.1c0.7-2.8,6.7-7.4,5.3-14.6
		c0,0,0.7,0.3,0.9,1.1c0,0,0.1-3.7-2.2-5.8c-2.2-2.1-1-4.5-2.9-5.5c0,0,0.3,0.8,0.1,1.4c0,0-2.6-3.2-9-3.5C9.8-0.2,7.1,1.8,5.5,4.2
		C4,6.5,3.1,11.3,3.2,12c0.1,0.7,0.5,1.5,0.5,1.5s-0.6,1.7-1.8,3C0.6,17.8,1,18.6,1.7,19z M7.2,5.8l3.2,2.7L9.9,9l4.5,4.5l1.3-1.3
		c0.6-0.6,1-1.5,0.9-2c0,0,0,0,0-0.5c0-0.5,0.1-1,0.3-1.5c0.2-0.5,0.5-0.9,0.9-1.3c0.3-0.3,0.6-0.5,1-0.8c0.4-0.2,0.8-0.4,1.2-0.5
		c0.4-0.1,0.8-0.2,1.3-0.2c0.4,0,0.4,0,0.4,0c0,0,0.1,0,0.1,0c0.4,0.1,0.5,0.4,0.3,0.6c-0.1,0.1-0.3,0.3-0.4,0.4
		c-0.2,0.1-0.3,0.3-0.4,0.4C21.1,7,21,7.2,20.8,7.3l-0.4,0.4L20,8.1l0.1,0.9v0l0.1,0.9l1.9,0.2L23,9.4c0.1-0.1,0.1-0.1,0.1-0.1
		l0.7-0.7l0.1-0.1l0.2-0.2c0.1-0.1,0.1-0.1,0.2-0.2c0,0,0,0,0,0c0.2-0.2,0.4-0.1,0.6,0.3c0,0,0,0.1,0,0.1c0,0,0,0,0,0.4
		c0,0.4-0.1,0.8-0.2,1.3c-0.1,0.4-0.3,0.8-0.5,1.2c-0.2,0.4-0.5,0.7-0.7,1c-0.4,0.4-0.8,0.7-1.3,0.9c-0.5,0.2-1,0.3-1.5,0.3
		c-0.5,0-0.5,0-0.5,0c-0.5-0.1-1.4,0.3-2,0.9l-1.3,1.3l1.4,1.4l0.6-0.6c0.1-0.1,0.4-0.1,0.5,0l0.3,0.3c0.1,0.1,0.3,0.4,0.3,0.6
		c0,0,0.1,0.4,0.3,0.7c0.3,0.3,0.7,0.4,0.7,0.4c0.2,0,0.5,0.2,0.6,0.3l3.3,3.3c0.1,0.1,0.1,0.4,0,0.5L24,23.6l-0.4,0.4l-0.9,0.9
		c-0.1,0.1-0.4,0.1-0.5,0L19,21.5c-0.1-0.1-0.3-0.4-0.3-0.6c0,0-0.1-0.4-0.4-0.7c-0.3-0.3-0.7-0.4-0.7-0.4c-0.2,0-0.5-0.2-0.6-0.3
		l-0.3-0.3c-0.1-0.1-0.1-0.4,0-0.5l0.6-0.6L16,16.7l-6.8,6.8c-0.6,0.6-1.6,0.6-2.3,0l-0.1-0.1c-0.6-0.6-0.6-1.6,0-2.3l6.8-6.8
		L9.1,9.8l-0.4,0.4L5.9,7.1L7.2,5.8z"/>
</g>
</svg>
