<?xml version="1.0" encoding="utf-8"?>
<!-- Generator: Adobe Illustrator 19.2.1, SVG Export Plug-In . SVG Version: 6.00 Build 0)  -->
<svg width="16" height="16" version="1.1" id="Layer_1" xmlns="http://www.w3.org/2000/svg" xmlns:xlink="http://www.w3.org/1999/xlink" x="0px" y="0px"
	 viewBox="0 0 32 32" style="enable-background:new 0 0 32 32;" xml:space="preserve">
<style type="text/css">
	.st0{fill:#0B55A8;}
</style>
<path d="M22.1,15.4c0.2-0.2,0.3-0.4,0.3-0.7c0-0.3-0.1-0.5-0.3-0.7l-6-5.8l-6,5.8c-0.4,0.4-0.4,1,0,1.4s1,0.4,1.4,0l3.6-3.6v19
	c0,0.5,0.4,1,1,1c0.5,0,1-0.4,1-1V11.7l3.6,3.6C21.1,15.7,21.7,15.7,22.1,15.4z M2.3,21.9h8.9v-2H3.5c-0.7,0-1.2-0.5-1.2-1.2V3.4
	c0-0.7,0.5-1.2,1.2-1.2h25.2c0.7,0,1.2,0.5,1.2,1.2v15.3c0,0.7-0.5,1.2-1.2,1.2h-7.7v2h8.8c1.1,0,2-0.9,2-2V2.1c0-1.1-0.9-2-2-2H2.2
	c-1.1,0-2,0.9-2,2v17.8C0.3,21,1.2,21.9,2.3,21.9z"/>
<path class="st0" d="M2.3,0l27.5,0C31.1,0,32,1,32,2.2v17.7c0,1.2-1,2.2-2.2,2.2h-9.1v-2.4h7.9c0.6,0,1-0.5,1-1V3.3c0-0.6-0.5-1-1-1
	H3.4c-0.6,0-1,0.5-1,1v15.4c0,0.6,0.5,1,1,1h7.9v2.4H2.2c-1.2,0-2.2-1-2.2-2.2V2.1C0.1,1,1.1,0,2.3,0z M16.1,7.9l6.1,6
	c0.2,0.2,0.3,0.5,0.3,0.8s-0.1,0.6-0.3,0.8l0,0c-0.5,0.5-1.2,0.5-1.7,0l-3.3-3.3v18.6c0.1,0.7-0.5,1.2-1.1,1.2
	c-0.7,0-1.2-0.5-1.2-1.2V12.2l-3.2,3.2c-0.5,0.5-1.2,0.5-1.7,0c-0.5-0.5-0.5-1.2,0-1.7L16.1,7.9z"/>
</svg>
