<?xml version="1.0" encoding="utf-8"?>
<!-- Generator: Adobe Illustrator 19.2.1, SVG Export Plug-In . SVG Version: 6.00 Build 0)  -->
<svg width="16" height="16" version="1.1" id="Layer_1" xmlns="http://www.w3.org/2000/svg" xmlns:xlink="http://www.w3.org/1999/xlink" x="0px" y="0px"
	 viewBox="0 0 32 32" style="enable-background:new 0 0 32 32;" xml:space="preserve">
<style type="text/css">
	.st0{fill:#0B55A8;}
</style>
<g>
	<g>
		<path class="st0" d="M17.8,13.7l3.2,7.5c0.3,0.8,0.6,1.2,0.8,1.2c0.1,0,0.3-0.2,0.5-0.7c0.1-0.2,0.2-0.4,0.4-0.9
			c1.4-3.1,2.7-6.1,3.8-9.3c1.2-3.1,1.8-5,1.8-5.5c0-0.5-0.4-0.8-1.3-1c-0.5-0.1-0.7-0.3-0.7-0.5c0-0.2,0.2-0.3,0.5-0.3
			c0.1,0,0.1,0,0.3,0c0.4,0,1.1,0,1.9,0c1,0,1.7,0,2.1-0.1c0.4,0,0.6-0.1,0.7-0.1c0.2,0,0.3,0.1,0.3,0.3c0,0.2-0.2,0.3-0.5,0.5
			c-0.4,0.2-0.7,0.5-1,0.9l-0.9,1.9c-0.4,0.8-0.9,2-1.7,3.8c-0.8,1.9-1.4,3.2-1.8,4.2l-1.9,4.3l-1.3,3l-0.8,1.7L22,25.4l-0.2,0.5
			c-0.3,0.6-0.5,0.9-0.8,0.9c-0.2,0-0.5-0.3-0.7-0.8l-3.9-9.1l-3.9,9.4c-0.2,0.5-0.4,0.7-0.6,0.7c-0.3,0-0.6-0.4-0.9-1.2L4.5,10.2
			l-0.4-1C3.5,7.7,3,6.7,2.6,6.1C2.2,5.6,1.6,5.2,1,5.1L0.3,4.9C0.1,4.9,0,4.8,0,4.6c0-0.2,0.2-0.4,0.5-0.4c0.1,0,0.2,0,0.4,0
			c0.4,0.1,0.9,0.1,1.6,0.1l1.9,0l1.3,0c0.5,0,0.9-0.1,1-0.1c0.3,0,0.4,0.1,0.4,0.4C7.1,4.8,7,4.9,6.8,5c-0.7,0.2-1,0.5-1,0.9
			c0,0.5,0.4,1.6,1.1,3.4c0.4,0.8,0.9,2.2,1.7,4.1c0.7,1.9,1.3,3.2,1.6,3.9l1.5,3.4c0.2,0.4,0.3,0.6,0.3,0.8l0.2,0.3
			c0.1,0.2,0.2,0.3,0.3,0.3c0.1,0,0.2-0.2,0.3-0.5l0.1-0.2l2.7-6.3c-0.2-0.5-0.4-0.8-0.4-0.9l-1.4-3.3l-1.3-3.1
			c-0.5-1.1-0.9-1.8-1.1-2.1c-0.3-0.3-0.7-0.5-1.2-0.6C9.3,5,8.9,4.8,8.9,4.5c0-0.2,0.2-0.3,0.7-0.3l0.6,0l3.1,0.1
			c0.4,0,1,0,1.6-0.1c0.3,0,0.6,0,0.7,0c0.4,0,0.5,0.1,0.5,0.4c0,0.2-0.2,0.3-0.5,0.4c-0.5,0.2-0.8,0.5-0.8,1c0,0.4,0.2,1,0.6,1.9
			l1.7,4c0.1-0.3,0.2-0.6,0.3-0.7c1.2-2.7,1.8-4.4,1.8-5.3c0-0.5-0.3-0.8-1-0.9c-0.5-0.1-0.8-0.3-0.8-0.5c0-0.2,0.2-0.3,0.5-0.3
			c0.1,0,0.3,0,0.6,0c0.5,0,1,0,1.6,0c0.7,0,1.2,0,1.5-0.1c0.3,0,0.5,0,0.6,0c0.3,0,0.5,0.1,0.5,0.4c0,0.2-0.2,0.3-0.6,0.4
			c-0.4,0.1-0.7,0.3-0.9,0.6c-0.2,0.3-0.5,0.9-1,2.1L17.8,13.7z"/>
	</g>
</g>
</svg>
